<?xml version="1.0" encoding="UTF-8" standalone="no"?>
<!-- Created with Inkscape (http://www.inkscape.org/) -->

<svg
   version="1.1"
   id="svg2"
   width="378.51999"
   height="241.56"
   viewBox="0 0 378.51999 241.56"
   sodipodi:docname="JWF-logo-RGB.eps"
   xmlns:inkscape="http://www.inkscape.org/namespaces/inkscape"
   xmlns:sodipodi="http://sodipodi.sourceforge.net/DTD/sodipodi-0.dtd"
   xmlns="http://www.w3.org/2000/svg"
   xmlns:svg="http://www.w3.org/2000/svg">
  <defs
     id="defs6" />
  <sodipodi:namedview
     id="namedview4"
     pagecolor="#ffffff"
     bordercolor="#000000"
     borderopacity="0.25"
     inkscape:showpageshadow="2"
     inkscape:pageopacity="0.0"
     inkscape:pagecheckerboard="0"
     inkscape:deskcolor="#d1d1d1" />
  <g
     id="g8"
     inkscape:groupmode="layer"
     inkscape:label="ink_ext_XXXXXX"
     transform="matrix(1.3333333,0,0,-1.3333333,0,241.56)">
    <g
       id="g10"
       transform="scale(0.1)">
      <path
         d="m 1933.02,1811.73 c -190.71,0 -367.62,-58.98 -513.58,-159.63 236.95,-163.38 392.29,-436.65 392.29,-746.237 0,-309.582 -155.34,-582.851 -392.29,-746.234 C 1565.4,58.9805 1742.31,0 1933.02,0 c 500.29,0 905.86,405.57 905.86,905.863 0,500.297 -405.57,905.867 -905.86,905.867"
         style="fill:#26469f;fill-opacity:1;fill-rule:nonzero;stroke:none"
         id="path12" />
      <path
         d="m 1027.15,905.863 c 0,309.587 155.34,582.857 392.29,746.237 -145.96,100.65 -322.87,159.63 -513.577,159.63 C 405.57,1811.73 0,1406.16 0,905.863 0,405.57 405.57,0 905.863,0 1096.57,0 1273.48,58.9805 1419.44,159.629 1182.49,323.012 1027.15,596.281 1027.15,905.863"
         style="fill:#da173e;fill-opacity:1;fill-rule:nonzero;stroke:none"
         id="path14" />
      <path
         d="m 1027.15,905.863 c 0,-309.582 155.34,-582.851 392.29,-746.234 236.95,163.383 392.29,436.652 392.29,746.234 0,309.587 -155.34,582.857 -392.29,746.237 -236.95,-163.38 -392.29,-436.65 -392.29,-746.237"
         style="fill:#282b44;fill-opacity:1;fill-rule:nonzero;stroke:none"
         id="path16" />
      <path
         d="m 263.637,807.68 h 163.117 l -34.84,-91.86 c 0,0 -17.422,-44.34 58.594,-45.922 76.019,-1.589 98.187,11.082 123.527,68.891 25.34,57.801 208.645,543.991 208.645,543.991 H 969.02 L 733.988,669.77 c 0,0 -51.086,-145.11 -215.773,-147.411 -169.828,-2.379 -215.469,-4.5 -264.258,37.172 -34.836,29.758 -50.961,83.449 -37.105,125.43 23.812,72.148 46.785,122.719 46.785,122.719"
         style="fill:#ffffff;fill-opacity:1;fill-rule:nonzero;stroke:none"
         id="path18" />
      <path
         d="m 2260.86,1118.51 h 50.11 l 231.84,-0.24 62.8,164.51 c 0,0 -263.53,0.63 -308.79,0 -164.68,-2.3 -215.8,-148.48 -215.8,-148.48 L 1846.29,521.289 h 185.63 c 0,0 56.97,150.762 111.83,294.367 l 170.59,-0.043 61.64,164.379 c 0,0 -85.58,0.879 -168.24,0.446 16.63,42.772 53.12,138.072 53.12,138.072"
         style="fill:#ffffff;fill-opacity:1;fill-rule:nonzero;stroke:none"
         id="path20" />
      <path
         d="m 1828.46,1282.78 c 0,0 -183.71,-486.19 -209.05,-543.991 -25.34,-57.809 -47.51,-70.48 -123.52,-68.891 -61.82,1.282 -61.56,28.352 -56.96,42.133 l 21.97,60.008 195.48,510.741 h -188.01 c 0,0 -182.41,-486.19 -207.75,-543.991 -25.34,-57.809 -47.51,-70.48 -123.53,-68.891 -76.01,1.582 -58.59,45.922 -58.59,45.922 l 216.27,566.96 h -185.72 c 0,0 -122.792,-324.967 -181.437,-475.12 -0.074,-0.16 -23.441,-52.422 -49.191,-123.351 -15.086,-41.547 -9.848,-97.18 24.988,-126.93 36.414,-31.098 91.102,-36.27 187.43,-35.82 32.65,0.152 113.9,0 113.9,0 0,0 44.81,-0.039 76.67,-0.129 72.21,-0.211 175.13,0.129 282.03,0.129 152.88,0 198.66,116.32 213.57,147.589 20.81,43.653 237.81,615.212 236.82,613.632 h -185.37"
         style="fill:#ffffff;fill-opacity:1;fill-rule:nonzero;stroke:none"
         id="path22" />
    </g>
  </g>
</svg>
