<?xml version="1.0" encoding="UTF-8" standalone="no"?>
<!DOCTYPE svg PUBLIC "-//W3C//DTD SVG 20010904//EN"
              "http://www.w3.org/TR/2001/REC-SVG-20010904/DTD/svg10.dtd">

<svg xmlns="http://www.w3.org/2000/svg"
     width="207.091mm" height="119.951mm"
     viewBox="0 0 1174 680">
  <path id="Selection"
        fill="red" stroke="black" stroke-width="1"
        d="M 394.00,0.21
           C 394.00,0.21 435.00,0.21 435.00,0.21
             435.00,0.21 445.00,0.91 445.00,0.91
             474.77,3.09 506.27,10.36 534.00,21.45
             549.23,27.54 564.82,35.19 579.00,43.42
             582.53,45.47 593.86,53.60 597.00,53.46
             599.50,53.35 605.60,49.07 608.00,47.58
             608.00,47.58 632.00,33.86 632.00,33.86
             650.17,23.94 678.78,13.95 699.00,8.89
             733.09,0.37 759.31,-0.40 794.00,0.00
             811.13,0.20 837.21,4.93 854.00,9.13
             911.57,23.52 962.27,52.78 1004.00,95.00
             1110.77,203.04 1123.44,377.84 1035.42,501.00
             1024.13,516.80 1010.19,533.69 996.00,546.91
             948.24,591.40 890.60,620.55 826.00,630.58
             802.66,634.20 783.45,634.27 760.00,634.00
             760.00,634.00 750.00,633.09 750.00,633.09
             714.59,630.61 679.43,621.58 647.00,607.14
             635.65,602.09 623.64,595.79 613.00,589.40
             610.06,587.64 599.59,580.66 597.00,580.54
             594.19,580.41 590.36,583.45 588.00,584.95
             588.00,584.95 569.00,596.22 569.00,596.22
             547.76,607.43 525.26,616.98 502.00,623.12
             402.54,649.37 298.70,629.02 218.00,564.55
             193.59,545.05 170.70,520.02 153.35,494.00
             87.16,394.70 82.62,267.58 139.31,163.00
             155.13,133.81 177.76,105.67 202.00,83.09
             239.11,48.51 286.98,22.75 336.00,9.88
             348.73,6.54 361.94,3.91 375.00,2.28
             375.00,2.28 394.00,0.21 394.00,0.21 Z
           M 596.00,56.00
           C 596.00,56.00 595.00,56.00 595.00,56.00
             595.00,56.00 596.00,57.00 596.00,57.00
             596.00,57.00 596.00,56.00 596.00,56.00 Z
           M 595.00,57.00
           C 595.00,57.00 594.00,57.00 594.00,57.00
             594.00,57.00 595.00,58.00 595.00,58.00
             595.00,58.00 595.00,57.00 595.00,57.00 Z
           M 600.00,57.00
           C 600.00,57.00 599.00,57.00 599.00,57.00
             599.00,57.00 600.00,58.00 600.00,58.00
             600.00,58.00 600.00,57.00 600.00,57.00 Z
           M 601.00,58.00
           C 601.00,58.00 600.00,58.00 600.00,58.00
             600.00,58.00 601.00,59.00 601.00,59.00
             601.00,59.00 601.00,58.00 601.00,58.00 Z
           M 592.00,59.00
           C 592.00,59.00 591.00,59.00 591.00,59.00
             591.00,59.00 592.00,60.00 592.00,60.00
             592.00,60.00 592.00,59.00 592.00,59.00 Z
           M 603.00,59.00
           C 603.00,59.00 602.00,59.00 602.00,59.00
             602.00,59.00 603.00,60.00 603.00,60.00
             603.00,60.00 603.00,59.00 603.00,59.00 Z
           M 591.00,60.00
           C 591.00,60.00 590.00,60.00 590.00,60.00
             590.00,60.00 591.00,61.00 591.00,61.00
             591.00,61.00 591.00,60.00 591.00,60.00 Z
           M 604.00,60.00
           C 604.00,60.00 603.00,60.00 603.00,60.00
             603.00,60.00 604.00,61.00 604.00,61.00
             604.00,61.00 604.00,60.00 604.00,60.00 Z
           M 589.00,61.00
           C 589.00,61.00 588.00,61.00 588.00,61.00
             588.00,61.00 589.00,62.00 589.00,62.00
             589.00,62.00 589.00,61.00 589.00,61.00 Z
           M 588.00,62.00
           C 588.00,62.00 587.00,62.00 587.00,62.00
             587.00,62.00 588.00,63.00 588.00,63.00
             588.00,63.00 588.00,62.00 588.00,62.00 Z
           M 607.00,62.00
           C 607.00,62.00 606.00,62.00 606.00,62.00
             606.00,62.00 607.00,63.00 607.00,63.00
             607.00,63.00 607.00,62.00 607.00,62.00 Z
           M 587.00,63.00
           C 587.00,63.00 586.00,63.00 586.00,63.00
             586.00,63.00 587.00,64.00 587.00,64.00
             587.00,64.00 587.00,63.00 587.00,63.00 Z
           M 608.00,63.00
           C 608.00,63.00 607.00,63.00 607.00,63.00
             607.00,63.00 608.00,64.00 608.00,64.00
             608.00,64.00 608.00,63.00 608.00,63.00 Z
           M 585.00,64.00
           C 585.00,64.00 584.00,64.00 584.00,64.00
             584.00,64.00 585.00,65.00 585.00,65.00
             585.00,65.00 585.00,64.00 585.00,64.00 Z
           M 584.00,65.00
           C 584.00,65.00 583.00,65.00 583.00,65.00
             583.00,65.00 584.00,66.00 584.00,66.00
             584.00,66.00 584.00,65.00 584.00,65.00 Z
           M 611.00,65.00
           C 611.00,65.00 610.00,65.00 610.00,65.00
             610.00,65.00 611.00,66.00 611.00,66.00
             611.00,66.00 611.00,65.00 611.00,65.00 Z
           M 583.00,66.00
           C 583.00,66.00 582.00,66.00 582.00,66.00
             582.00,66.00 583.00,67.00 583.00,67.00
             583.00,67.00 583.00,66.00 583.00,66.00 Z
           M 612.00,66.00
           C 612.00,66.00 611.00,66.00 611.00,66.00
             611.00,66.00 612.00,67.00 612.00,67.00
             612.00,67.00 612.00,66.00 612.00,66.00 Z
           M 581.00,67.00
           C 581.00,67.00 580.00,67.00 580.00,67.00
             580.00,67.00 581.00,68.00 581.00,68.00
             581.00,68.00 581.00,67.00 581.00,67.00 Z
           M 613.00,67.00
           C 613.00,67.00 612.00,67.00 612.00,67.00
             612.00,67.00 613.00,68.00 613.00,68.00
             613.00,68.00 613.00,67.00 613.00,67.00 Z
           M 580.00,68.00
           C 580.00,68.00 579.00,68.00 579.00,68.00
             579.00,68.00 580.00,69.00 580.00,69.00
             580.00,69.00 580.00,68.00 580.00,68.00 Z
           M 579.00,69.00
           C 579.00,69.00 578.00,69.00 578.00,69.00
             578.00,69.00 579.00,70.00 579.00,70.00
             579.00,70.00 579.00,69.00 579.00,69.00 Z
           M 616.00,69.00
           C 616.00,69.00 615.00,69.00 615.00,69.00
             615.00,69.00 616.00,70.00 616.00,70.00
             616.00,70.00 616.00,69.00 616.00,69.00 Z
           M 578.00,70.00
           C 578.00,70.00 577.00,70.00 577.00,70.00
             577.00,70.00 578.00,71.00 578.00,71.00
             578.00,71.00 578.00,70.00 578.00,70.00 Z
           M 617.00,70.00
           C 617.00,70.00 616.00,70.00 616.00,70.00
             616.00,70.00 617.00,71.00 617.00,71.00
             617.00,71.00 617.00,70.00 617.00,70.00 Z
           M 576.00,71.00
           C 576.00,71.00 575.00,71.00 575.00,71.00
             575.00,71.00 576.00,72.00 576.00,72.00
             576.00,72.00 576.00,71.00 576.00,71.00 Z
           M 618.00,71.00
           C 618.00,71.00 617.00,71.00 617.00,71.00
             617.00,71.00 618.00,72.00 618.00,72.00
             618.00,72.00 618.00,71.00 618.00,71.00 Z
           M 575.00,72.00
           C 575.00,72.00 574.00,72.00 574.00,72.00
             574.00,72.00 575.00,73.00 575.00,73.00
             575.00,73.00 575.00,72.00 575.00,72.00 Z
           M 574.00,73.00
           C 574.00,73.00 573.00,73.00 573.00,73.00
             573.00,73.00 574.00,74.00 574.00,74.00
             574.00,74.00 574.00,73.00 574.00,73.00 Z
           M 621.00,73.00
           C 621.00,73.00 620.00,73.00 620.00,73.00
             620.00,73.00 621.00,74.00 621.00,74.00
             621.00,74.00 621.00,73.00 621.00,73.00 Z
           M 573.00,74.00
           C 573.00,74.00 572.00,74.00 572.00,74.00
             572.00,74.00 573.00,75.00 573.00,75.00
             573.00,75.00 573.00,74.00 573.00,74.00 Z
           M 622.00,74.00
           C 622.00,74.00 621.00,74.00 621.00,74.00
             621.00,74.00 622.00,75.00 622.00,75.00
             622.00,75.00 622.00,74.00 622.00,74.00 Z
           M 572.00,75.00
           C 572.00,75.00 571.00,75.00 571.00,75.00
             571.00,75.00 572.00,76.00 572.00,76.00
             572.00,76.00 572.00,75.00 572.00,75.00 Z
           M 623.00,75.00
           C 623.00,75.00 622.00,75.00 622.00,75.00
             622.00,75.00 623.00,76.00 623.00,76.00
             623.00,76.00 623.00,75.00 623.00,75.00 Z
           M 624.00,76.00
           C 624.00,76.00 623.00,76.00 623.00,76.00
             623.00,76.00 624.00,77.00 624.00,77.00
             624.00,77.00 624.00,76.00 624.00,76.00 Z
           M 569.00,77.00
           C 569.00,77.00 568.00,77.00 568.00,77.00
             568.00,77.00 569.00,78.00 569.00,78.00
             569.00,78.00 569.00,77.00 569.00,77.00 Z
           M 568.00,78.00
           C 568.00,78.00 567.00,78.00 567.00,78.00
             567.00,78.00 568.00,79.00 568.00,79.00
             568.00,79.00 568.00,78.00 568.00,78.00 Z
           M 567.00,79.00
           C 567.00,79.00 566.00,79.00 566.00,79.00
             566.00,79.00 567.00,80.00 567.00,80.00
             567.00,80.00 567.00,79.00 567.00,79.00 Z
           M 566.00,80.00
           C 566.00,80.00 565.00,80.00 565.00,80.00
             565.00,80.00 566.00,81.00 566.00,81.00
             566.00,81.00 566.00,80.00 566.00,80.00 Z
           M 629.00,80.00
           C 629.00,80.00 628.00,80.00 628.00,80.00
             628.00,80.00 629.00,81.00 629.00,81.00
             629.00,81.00 629.00,80.00 629.00,80.00 Z
           M 565.00,81.00
           C 565.00,81.00 564.00,81.00 564.00,81.00
             564.00,81.00 565.00,82.00 565.00,82.00
             565.00,82.00 565.00,81.00 565.00,81.00 Z
           M 630.00,81.00
           C 630.00,81.00 629.00,81.00 629.00,81.00
             629.00,81.00 630.00,82.00 630.00,82.00
             630.00,82.00 630.00,81.00 630.00,81.00 Z
           M 564.00,82.00
           C 564.00,82.00 563.00,82.00 563.00,82.00
             563.00,82.00 564.00,83.00 564.00,83.00
             564.00,83.00 564.00,82.00 564.00,82.00 Z
           M 631.00,82.00
           C 631.00,82.00 630.00,82.00 630.00,82.00
             630.00,82.00 631.00,83.00 631.00,83.00
             631.00,83.00 631.00,82.00 631.00,82.00 Z
           M 563.00,83.00
           C 563.00,83.00 562.00,83.00 562.00,83.00
             562.00,83.00 563.00,84.00 563.00,84.00
             563.00,84.00 563.00,83.00 563.00,83.00 Z
           M 632.00,83.00
           C 632.00,83.00 631.00,83.00 631.00,83.00
             631.00,83.00 632.00,84.00 632.00,84.00
             632.00,84.00 632.00,83.00 632.00,83.00 Z
           M 633.00,84.00
           C 633.00,84.00 632.00,84.00 632.00,84.00
             632.00,84.00 633.00,85.00 633.00,85.00
             633.00,85.00 633.00,84.00 633.00,84.00 Z
           M 560.00,85.00
           C 560.00,85.00 559.00,85.00 559.00,85.00
             559.00,85.00 560.00,86.00 560.00,86.00
             560.00,86.00 560.00,85.00 560.00,85.00 Z
           M 634.00,85.00
           C 634.00,85.00 633.00,85.00 633.00,85.00
             633.00,85.00 634.00,86.00 634.00,86.00
             634.00,86.00 634.00,85.00 634.00,85.00 Z
           M 559.00,86.00
           C 559.00,86.00 558.00,86.00 558.00,86.00
             558.00,86.00 559.00,87.00 559.00,87.00
             559.00,87.00 559.00,86.00 559.00,86.00 Z
           M 558.00,87.00
           C 558.00,87.00 557.00,87.00 557.00,87.00
             557.00,87.00 558.00,88.00 558.00,88.00
             558.00,88.00 558.00,87.00 558.00,87.00 Z
           M 557.00,88.00
           C 557.00,88.00 556.00,88.00 556.00,88.00
             556.00,88.00 557.00,89.00 557.00,89.00
             557.00,89.00 557.00,88.00 557.00,88.00 Z
           M 556.00,89.00
           C 556.00,89.00 555.00,89.00 555.00,89.00
             555.00,89.00 556.00,90.00 556.00,90.00
             556.00,90.00 556.00,89.00 556.00,89.00 Z
           M 555.00,90.00
           C 555.00,90.00 554.00,90.00 554.00,90.00
             554.00,90.00 555.00,91.00 555.00,91.00
             555.00,91.00 555.00,90.00 555.00,90.00 Z
           M 554.00,91.00
           C 554.00,91.00 553.00,91.00 553.00,91.00
             553.00,91.00 554.00,92.00 554.00,92.00
             554.00,92.00 554.00,91.00 554.00,91.00 Z
           M 553.00,92.00
           C 553.00,92.00 552.00,92.00 552.00,92.00
             552.00,92.00 553.00,93.00 553.00,93.00
             553.00,93.00 553.00,92.00 553.00,92.00 Z
           M 552.00,93.00
           C 552.00,93.00 551.00,93.00 551.00,93.00
             551.00,93.00 552.00,94.00 552.00,94.00
             552.00,94.00 552.00,93.00 552.00,93.00 Z
           M 551.00,94.00
           C 551.00,94.00 550.00,94.00 550.00,94.00
             550.00,94.00 551.00,95.00 551.00,95.00
             551.00,95.00 551.00,94.00 551.00,94.00 Z
           M 550.00,95.00
           C 550.00,95.00 549.00,95.00 549.00,95.00
             549.00,95.00 550.00,96.00 550.00,96.00
             550.00,96.00 550.00,95.00 550.00,95.00 Z
           M 549.00,96.00
           C 549.00,96.00 548.00,96.00 548.00,96.00
             548.00,96.00 549.00,97.00 549.00,97.00
             549.00,97.00 549.00,96.00 549.00,96.00 Z
           M 548.00,97.00
           C 548.00,97.00 547.00,97.00 547.00,97.00
             547.00,97.00 548.00,98.00 548.00,98.00
             548.00,98.00 548.00,97.00 548.00,97.00 Z
           M 547.00,98.00
           C 547.00,98.00 546.00,98.00 546.00,98.00
             546.00,98.00 547.00,99.00 547.00,99.00
             547.00,99.00 547.00,98.00 547.00,98.00 Z
           M 546.00,99.00
           C 546.00,99.00 545.00,99.00 545.00,99.00
             545.00,99.00 546.00,100.00 546.00,100.00
             546.00,100.00 546.00,99.00 546.00,99.00 Z
           M 545.00,100.00
           C 545.00,100.00 544.00,100.00 544.00,100.00
             544.00,100.00 545.00,101.00 545.00,101.00
             545.00,101.00 545.00,100.00 545.00,100.00 Z
           M 650.00,101.00
           C 650.00,101.00 649.00,101.00 649.00,101.00
             649.00,101.00 650.00,102.00 650.00,102.00
             650.00,102.00 650.00,101.00 650.00,101.00 Z
           M 544.00,102.00
           C 544.00,102.00 543.00,102.00 543.00,102.00
             543.00,102.00 544.00,103.00 544.00,103.00
             544.00,103.00 544.00,102.00 544.00,102.00 Z
           M 651.00,102.00
           C 651.00,102.00 650.00,102.00 650.00,102.00
             650.00,102.00 651.00,103.00 651.00,103.00
             651.00,103.00 651.00,102.00 651.00,102.00 Z
           M 543.00,103.00
           C 543.00,103.00 542.00,103.00 542.00,103.00
             542.00,103.00 543.00,104.00 543.00,104.00
             543.00,104.00 543.00,103.00 543.00,103.00 Z
           M 652.00,103.00
           C 652.00,103.00 651.00,103.00 651.00,103.00
             651.00,103.00 652.00,104.00 652.00,104.00
             652.00,104.00 652.00,103.00 652.00,103.00 Z
           M 542.00,104.00
           C 542.00,104.00 541.00,104.00 541.00,104.00
             541.00,104.00 542.00,105.00 542.00,105.00
             542.00,105.00 542.00,104.00 542.00,104.00 Z
           M 653.00,104.00
           C 653.00,104.00 652.00,104.00 652.00,104.00
             652.00,104.00 653.00,105.00 653.00,105.00
             653.00,105.00 653.00,104.00 653.00,104.00 Z
           M 541.00,105.00
           C 541.00,105.00 540.00,105.00 540.00,105.00
             540.00,105.00 541.00,106.00 541.00,106.00
             541.00,106.00 541.00,105.00 541.00,105.00 Z
           M 654.00,105.00
           C 654.00,105.00 653.00,105.00 653.00,105.00
             653.00,105.00 654.00,106.00 654.00,106.00
             654.00,106.00 654.00,105.00 654.00,105.00 Z
           M 540.00,106.00
           C 540.00,106.00 539.00,106.00 539.00,106.00
             539.00,106.00 540.00,107.00 540.00,107.00
             540.00,107.00 540.00,106.00 540.00,106.00 Z
           M 539.00,107.00
           C 539.00,107.00 538.00,107.00 538.00,107.00
             538.00,107.00 539.00,108.00 539.00,108.00
             539.00,108.00 539.00,107.00 539.00,107.00 Z
           M 538.00,108.00
           C 538.00,108.00 537.00,108.00 537.00,108.00
             537.00,108.00 538.00,109.00 538.00,109.00
             538.00,109.00 538.00,108.00 538.00,108.00 Z
           M 537.00,109.00
           C 537.00,109.00 536.00,109.00 536.00,109.00
             536.00,109.00 537.00,110.00 537.00,110.00
             537.00,110.00 537.00,109.00 537.00,109.00 Z
           M 658.00,110.00
           C 658.00,110.00 657.00,110.00 657.00,110.00
             657.00,110.00 658.00,111.00 658.00,111.00
             658.00,111.00 658.00,110.00 658.00,110.00 Z
           M 536.00,111.00
           C 536.00,111.00 535.00,111.00 535.00,111.00
             535.00,111.00 536.00,112.00 536.00,112.00
             536.00,112.00 536.00,111.00 536.00,111.00 Z
           M 659.00,111.00
           C 659.00,111.00 658.00,111.00 658.00,111.00
             658.00,111.00 659.00,112.00 659.00,112.00
             659.00,112.00 659.00,111.00 659.00,111.00 Z
           M 535.00,112.00
           C 535.00,112.00 534.00,112.00 534.00,112.00
             534.00,112.00 535.00,113.00 535.00,113.00
             535.00,113.00 535.00,112.00 535.00,112.00 Z
           M 660.00,112.00
           C 660.00,112.00 659.00,112.00 659.00,112.00
             659.00,112.00 660.00,113.00 660.00,113.00
             660.00,113.00 660.00,112.00 660.00,112.00 Z
           M 534.00,113.00
           C 534.00,113.00 533.00,113.00 533.00,113.00
             533.00,113.00 534.00,114.00 534.00,114.00
             534.00,114.00 534.00,113.00 534.00,113.00 Z
           M 661.00,113.00
           C 661.00,113.00 660.00,113.00 660.00,113.00
             660.00,113.00 661.00,114.00 661.00,114.00
             661.00,114.00 661.00,113.00 661.00,113.00 Z
           M 533.00,114.00
           C 533.00,114.00 532.00,114.00 532.00,114.00
             532.00,114.00 533.00,115.00 533.00,115.00
             533.00,115.00 533.00,114.00 533.00,114.00 Z
           M 532.00,115.00
           C 532.00,115.00 531.00,115.00 531.00,115.00
             531.00,115.00 532.00,116.00 532.00,116.00
             532.00,116.00 532.00,115.00 532.00,115.00 Z
           M 664.00,117.00
           C 664.00,117.00 663.00,117.00 663.00,117.00
             663.00,117.00 664.00,118.00 664.00,118.00
             664.00,118.00 664.00,117.00 664.00,117.00 Z
           M 530.00,118.00
           C 530.00,118.00 529.00,118.00 529.00,118.00
             529.00,118.00 530.00,119.00 530.00,119.00
             530.00,119.00 530.00,118.00 530.00,118.00 Z
           M 665.00,118.00
           C 665.00,118.00 664.00,118.00 664.00,118.00
             664.00,118.00 665.00,119.00 665.00,119.00
             665.00,119.00 665.00,118.00 665.00,118.00 Z
           M 529.00,119.00
           C 529.00,119.00 528.00,119.00 528.00,119.00
             528.00,119.00 529.00,120.00 529.00,120.00
             529.00,120.00 529.00,119.00 529.00,119.00 Z
           M 528.00,120.00
           C 528.00,120.00 527.00,120.00 527.00,120.00
             527.00,120.00 528.00,121.00 528.00,121.00
             528.00,121.00 528.00,120.00 528.00,120.00 Z
           M 668.00,122.00
           C 668.00,122.00 667.00,122.00 667.00,122.00
             667.00,122.00 668.00,123.00 668.00,123.00
             668.00,123.00 668.00,122.00 668.00,122.00 Z
           M 526.00,123.00
           C 526.00,123.00 525.00,123.00 525.00,123.00
             525.00,123.00 526.00,124.00 526.00,124.00
             526.00,124.00 526.00,123.00 526.00,123.00 Z
           M 669.00,123.00
           C 669.00,123.00 668.00,123.00 668.00,123.00
             668.00,123.00 669.00,124.00 669.00,124.00
             669.00,124.00 669.00,123.00 669.00,123.00 Z
           M 525.00,124.00
           C 525.00,124.00 524.00,124.00 524.00,124.00
             524.00,124.00 525.00,125.00 525.00,125.00
             525.00,125.00 525.00,124.00 525.00,124.00 Z
           M 671.00,126.00
           C 671.00,126.00 670.00,126.00 670.00,126.00
             670.00,126.00 671.00,127.00 671.00,127.00
             671.00,127.00 671.00,126.00 671.00,126.00 Z
           M 523.00,127.00
           C 523.00,127.00 522.00,127.00 522.00,127.00
             522.00,127.00 523.00,128.00 523.00,128.00
             523.00,128.00 523.00,127.00 523.00,127.00 Z
           M 672.00,127.00
           C 672.00,127.00 671.00,127.00 671.00,127.00
             671.00,127.00 672.00,128.00 672.00,128.00
             672.00,128.00 672.00,127.00 672.00,127.00 Z
           M 522.00,128.00
           C 522.00,128.00 521.00,128.00 521.00,128.00
             521.00,128.00 522.00,129.00 522.00,129.00
             522.00,129.00 522.00,128.00 522.00,128.00 Z
           M 674.00,130.00
           C 674.00,130.00 673.00,130.00 673.00,130.00
             673.00,130.00 674.00,131.00 674.00,131.00
             674.00,131.00 674.00,130.00 674.00,130.00 Z
           M 520.00,131.00
           C 520.00,131.00 519.00,131.00 519.00,131.00
             519.00,131.00 520.00,132.00 520.00,132.00
             520.00,132.00 520.00,131.00 520.00,131.00 Z
           M 675.00,131.00
           C 675.00,131.00 674.00,131.00 674.00,131.00
             674.00,131.00 675.00,132.00 675.00,132.00
             675.00,132.00 675.00,131.00 675.00,131.00 Z
           M 519.00,132.00
           C 519.00,132.00 518.00,132.00 518.00,132.00
             518.00,132.00 519.00,133.00 519.00,133.00
             519.00,133.00 519.00,132.00 519.00,132.00 Z
           M 518.00,134.00
           C 518.00,134.00 517.00,134.00 517.00,134.00
             517.00,134.00 518.00,135.00 518.00,135.00
             518.00,135.00 518.00,134.00 518.00,134.00 Z
           M 677.00,134.00
           C 677.00,134.00 676.00,134.00 676.00,134.00
             676.00,134.00 677.00,135.00 677.00,135.00
             677.00,135.00 677.00,134.00 677.00,134.00 Z
           M 517.00,135.00
           C 517.00,135.00 516.00,135.00 516.00,135.00
             516.00,135.00 517.00,136.00 517.00,136.00
             517.00,136.00 517.00,135.00 517.00,135.00 Z
           M 679.00,137.00
           C 679.00,137.00 678.00,137.00 678.00,137.00
             678.00,137.00 679.00,138.00 679.00,138.00
             679.00,138.00 679.00,137.00 679.00,137.00 Z
           M 515.00,138.00
           C 515.00,138.00 514.00,138.00 514.00,138.00
             514.00,138.00 515.00,139.00 515.00,139.00
             515.00,139.00 515.00,138.00 515.00,138.00 Z
           M 681.00,140.00
           C 681.00,140.00 680.00,140.00 680.00,140.00
             680.00,140.00 681.00,141.00 681.00,141.00
             681.00,141.00 681.00,140.00 681.00,140.00 Z
           M 513.00,141.00
           C 513.00,141.00 512.00,141.00 512.00,141.00
             512.00,141.00 513.00,142.00 513.00,142.00
             513.00,142.00 513.00,141.00 513.00,141.00 Z
           M 682.00,141.00
           C 682.00,141.00 681.00,141.00 681.00,141.00
             681.00,141.00 682.00,142.00 682.00,142.00
             682.00,142.00 682.00,141.00 682.00,141.00 Z
           M 683.00,143.00
           C 683.00,143.00 682.00,143.00 682.00,143.00
             682.00,143.00 683.00,144.00 683.00,144.00
             683.00,144.00 683.00,143.00 683.00,143.00 Z
           M 511.00,144.00
           C 511.00,144.00 510.00,144.00 510.00,144.00
             510.00,144.00 511.00,145.00 511.00,145.00
             511.00,145.00 511.00,144.00 511.00,144.00 Z
           M 685.00,146.00
           C 685.00,146.00 684.00,146.00 684.00,146.00
             684.00,146.00 685.00,147.00 685.00,147.00
             685.00,147.00 685.00,146.00 685.00,146.00 Z
           M 509.00,147.00
           C 509.00,147.00 508.00,147.00 508.00,147.00
             508.00,147.00 509.00,148.00 509.00,148.00
             509.00,148.00 509.00,147.00 509.00,147.00 Z
           M 508.00,149.00
           C 508.00,149.00 507.00,149.00 507.00,149.00
             507.00,149.00 508.00,150.00 508.00,150.00
             508.00,150.00 508.00,149.00 508.00,149.00 Z
           M 687.00,149.00
           C 687.00,149.00 686.00,149.00 686.00,149.00
             686.00,149.00 687.00,150.00 687.00,150.00
             687.00,150.00 687.00,149.00 687.00,149.00 Z
           M 507.00,150.00
           C 507.00,150.00 506.00,150.00 506.00,150.00
             506.00,150.00 507.00,151.00 507.00,151.00
             507.00,151.00 507.00,150.00 507.00,150.00 Z
           M 688.00,151.00
           C 688.00,151.00 687.00,151.00 687.00,151.00
             687.00,151.00 688.00,152.00 688.00,152.00
             688.00,152.00 688.00,151.00 688.00,151.00 Z
           M 506.00,152.00
           C 506.00,152.00 505.00,152.00 505.00,152.00
             505.00,152.00 506.00,153.00 506.00,153.00
             506.00,153.00 506.00,152.00 506.00,152.00 Z
           M 689.00,152.00
           C 689.00,152.00 688.00,152.00 688.00,152.00
             688.00,152.00 689.00,153.00 689.00,153.00
             689.00,153.00 689.00,152.00 689.00,152.00 Z
           M 690.00,154.00
           C 690.00,154.00 689.00,154.00 689.00,154.00
             689.00,154.00 690.00,155.00 690.00,155.00
             690.00,155.00 690.00,154.00 690.00,154.00 Z
           M 504.00,155.00
           C 504.00,155.00 503.00,155.00 503.00,155.00
             503.00,155.00 504.00,156.00 504.00,156.00
             504.00,156.00 504.00,155.00 504.00,155.00 Z
           M 691.00,156.00
           C 691.00,156.00 690.00,156.00 690.00,156.00
             690.00,156.00 691.00,157.00 691.00,157.00
             691.00,157.00 691.00,156.00 691.00,156.00 Z
           M 503.00,157.00
           C 503.00,157.00 502.00,157.00 502.00,157.00
             502.00,157.00 503.00,158.00 503.00,158.00
             503.00,158.00 503.00,157.00 503.00,157.00 Z
           M 692.00,157.00
           C 692.00,157.00 691.00,157.00 691.00,157.00
             691.00,157.00 692.00,158.00 692.00,158.00
             692.00,158.00 692.00,157.00 692.00,157.00 Z
           M 693.00,159.00
           C 693.00,159.00 692.00,159.00 692.00,159.00
             692.00,159.00 693.00,160.00 693.00,160.00
             693.00,160.00 693.00,159.00 693.00,159.00 Z
           M 694.00,161.00
           C 694.00,161.00 693.00,161.00 693.00,161.00
             693.00,161.00 694.00,162.00 694.00,162.00
             694.00,162.00 694.00,161.00 694.00,161.00 Z
           M 500.00,162.00
           C 500.00,162.00 499.00,162.00 499.00,162.00
             499.00,162.00 500.00,163.00 500.00,163.00
             500.00,163.00 500.00,162.00 500.00,162.00 Z
           M 695.00,163.00
           C 695.00,163.00 694.00,163.00 694.00,163.00
             694.00,163.00 695.00,164.00 695.00,164.00
             695.00,164.00 695.00,163.00 695.00,163.00 Z
           M 499.00,164.00
           C 499.00,164.00 498.00,164.00 498.00,164.00
             498.00,164.00 499.00,165.00 499.00,165.00
             499.00,165.00 499.00,164.00 499.00,164.00 Z
           M 498.00,166.00
           C 498.00,166.00 497.00,166.00 497.00,166.00
             497.00,166.00 498.00,167.00 498.00,167.00
             498.00,167.00 498.00,166.00 498.00,166.00 Z
           M 697.00,166.00
           C 697.00,166.00 696.00,166.00 696.00,166.00
             696.00,166.00 697.00,167.00 697.00,167.00
             697.00,167.00 697.00,166.00 697.00,166.00 Z
           M 698.00,168.00
           C 698.00,168.00 697.00,168.00 697.00,168.00
             697.00,168.00 698.00,169.00 698.00,169.00
             698.00,169.00 698.00,168.00 698.00,168.00 Z
           M 699.00,170.00
           C 699.00,170.00 698.00,170.00 698.00,170.00
             698.00,170.00 699.00,171.00 699.00,171.00
             699.00,171.00 699.00,170.00 699.00,170.00 Z
           M 700.00,172.00
           C 700.00,172.00 699.00,172.00 699.00,172.00
             699.00,172.00 700.00,173.00 700.00,173.00
             700.00,173.00 700.00,172.00 700.00,172.00 Z
           M 701.00,174.00
           C 701.00,174.00 700.00,174.00 700.00,174.00
             700.00,174.00 701.00,175.00 701.00,175.00
             701.00,175.00 701.00,174.00 701.00,174.00 Z
           M 702.00,176.00
           C 702.00,176.00 701.00,176.00 701.00,176.00
             701.00,176.00 702.00,177.00 702.00,177.00
             702.00,177.00 702.00,176.00 702.00,176.00 Z
           M 703.00,178.00
           C 703.00,178.00 702.00,178.00 702.00,178.00
             702.00,178.00 703.00,179.00 703.00,179.00
             703.00,179.00 703.00,178.00 703.00,178.00 Z
           M 704.00,180.00
           C 704.00,180.00 703.00,180.00 703.00,180.00
             703.00,180.00 704.00,181.00 704.00,181.00
             704.00,181.00 704.00,180.00 704.00,180.00 Z
           M 705.00,182.00
           C 705.00,182.00 704.00,182.00 704.00,182.00
             704.00,182.00 705.00,183.00 705.00,183.00
             705.00,183.00 705.00,182.00 705.00,182.00 Z
           M 489.00,183.00
           C 486.21,187.30 483.51,195.88 481.58,201.00
             481.58,201.00 470.58,230.00 470.58,230.00
             470.58,230.00 433.19,328.00 433.19,328.00
             433.19,328.00 412.32,380.00 412.32,380.00
             408.55,390.20 404.98,397.88 404.18,409.00
             403.98,411.83 404.78,417.08 405.29,420.00
             409.66,445.48 433.61,449.62 455.00,451.09
             455.00,451.09 467.00,452.00 467.00,452.00
             467.00,452.00 648.00,452.00 648.00,452.00
             668.67,451.97 689.08,445.00 703.58,429.83
             708.59,424.59 713.20,418.36 716.69,412.00
             718.38,408.92 719.48,404.18 723.00,403.00
             723.00,403.00 740.58,355.00 740.58,355.00
             740.58,355.00 781.20,249.00 781.20,249.00
             781.20,249.00 796.42,209.00 796.42,209.00
             796.42,209.00 805.00,185.00 805.00,185.00
             805.00,185.00 747.00,185.00 747.00,185.00
             737.89,185.02 739.27,184.65 733.81,199.00
             733.81,199.00 718.68,239.00 718.68,239.00
             718.68,239.00 680.00,340.00 680.00,340.00
             675.54,351.18 665.90,378.70 659.47,387.00
             650.59,398.47 639.32,399.02 626.00,399.00
             618.91,398.99 605.49,398.11 604.26,389.00
             603.74,385.10 608.23,374.16 609.81,370.00
             609.81,370.00 625.81,328.00 625.81,328.00
             625.81,328.00 647.20,272.00 647.20,272.00
             647.20,272.00 669.42,214.00 669.42,214.00
             669.42,214.00 680.00,185.00 680.00,185.00
             680.00,185.00 621.00,185.00 621.00,185.00
             619.30,185.00 615.88,184.86 614.42,185.57
             611.62,186.93 608.77,196.84 607.58,200.00
             607.58,200.00 592.19,241.00 592.19,241.00
             592.19,241.00 556.42,335.00 556.42,335.00
             551.50,347.94 540.82,378.22 533.24,387.96
             524.78,398.83 511.58,399.14 499.00,399.00
             491.78,398.91 479.45,396.87 478.26,388.00
             477.69,383.70 482.29,373.46 483.95,369.00
             483.95,369.00 500.32,326.00 500.32,326.00
             500.32,326.00 522.05,269.00 522.05,269.00
             522.05,269.00 554.00,185.00 554.00,185.00
             554.00,185.00 508.00,185.00 508.00,185.00
             502.39,185.00 493.56,186.36 489.00,183.00 Z
           M 706.00,184.00
           C 706.00,184.00 705.00,184.00 705.00,184.00
             705.00,184.00 706.00,185.00 706.00,185.00
             706.00,185.00 706.00,184.00 706.00,184.00 Z
           M 440.00,185.00
           C 440.00,185.00 373.00,185.00 373.00,185.00
             373.00,185.00 356.81,229.00 356.81,229.00
             356.81,229.00 329.81,300.00 329.81,300.00
             329.81,300.00 309.81,352.00 309.81,352.00
             306.56,360.40 300.97,375.72 296.54,383.00
             288.53,396.15 278.65,398.98 264.00,399.00
             255.99,399.01 242.20,399.11 238.74,389.99
             237.20,385.92 239.36,380.83 240.81,377.00
             243.34,370.33 248.87,357.27 250.00,351.00
             250.00,351.00 200.00,351.00 200.00,351.00
             197.38,351.00 193.98,350.59 191.97,352.57
             190.09,354.42 186.55,364.04 185.42,367.00
             181.75,376.66 174.42,394.24 174.04,404.00
             173.35,421.64 183.99,438.75 200.00,446.10
             208.79,450.13 225.26,451.98 235.00,452.00
             265.39,452.05 300.68,455.95 327.00,438.25
             349.38,423.20 356.15,404.81 365.05,381.00
             365.05,381.00 375.05,355.00 375.05,355.00
             375.05,355.00 416.81,246.00 416.81,246.00
             416.81,246.00 440.00,185.00 440.00,185.00 Z
           M 1012.00,185.00
           C 1012.00,185.00 900.00,185.00 900.00,185.00
             874.23,185.04 851.02,199.23 836.44,220.00
             828.49,231.32 821.02,253.43 815.95,267.00
             815.95,267.00 789.58,336.00 789.58,336.00
             789.58,336.00 758.95,416.00 758.95,416.00
             755.76,424.52 747.20,444.35 746.00,452.00
             746.00,452.00 812.00,452.00 812.00,452.00
             812.00,452.00 822.19,424.00 822.19,424.00
             822.19,424.00 840.42,376.00 840.42,376.00
             840.42,376.00 850.00,349.00 850.00,349.00
             850.00,349.00 902.00,349.00 902.00,349.00
             911.72,348.98 910.55,348.48 915.95,334.00
             915.95,334.00 932.00,291.00 932.00,291.00
             932.00,291.00 918.00,290.00 918.00,290.00
             918.00,290.00 874.00,290.00 874.00,290.00
             874.00,290.00 891.00,243.00 891.00,243.00
             891.00,243.00 982.00,243.00 982.00,243.00
             985.17,242.99 988.64,243.51 990.78,240.69
             990.78,240.69 998.68,221.00 998.68,221.00
             998.68,221.00 1012.00,185.00 1012.00,185.00 Z
           M 707.00,187.00
           C 707.00,187.00 706.00,187.00 706.00,187.00
             706.00,187.00 707.00,188.00 707.00,188.00
             707.00,188.00 707.00,187.00 707.00,187.00 Z
           M 708.00,189.00
           C 708.00,189.00 707.00,189.00 707.00,189.00
             707.00,189.00 708.00,190.00 708.00,190.00
             708.00,190.00 708.00,189.00 708.00,189.00 Z
           M 709.00,191.00
           C 709.00,191.00 708.00,191.00 708.00,191.00
             708.00,191.00 709.00,192.00 709.00,192.00
             709.00,192.00 709.00,191.00 709.00,191.00 Z
           M 711.00,196.00
           C 711.00,196.00 710.00,196.00 710.00,196.00
             710.00,196.00 711.00,197.00 711.00,197.00
             711.00,197.00 711.00,196.00 711.00,196.00 Z
           M 712.00,198.00
           C 712.00,198.00 711.00,198.00 711.00,198.00
             711.00,198.00 712.00,199.00 712.00,199.00
             712.00,199.00 712.00,198.00 712.00,198.00 Z
           M 713.00,201.00
           C 713.00,201.00 712.00,201.00 712.00,201.00
             712.00,201.00 713.00,202.00 713.00,202.00
             713.00,202.00 713.00,201.00 713.00,201.00 Z
           M 715.00,206.00
           C 715.00,206.00 714.00,206.00 714.00,206.00
             714.00,206.00 715.00,207.00 715.00,207.00
             715.00,207.00 715.00,206.00 715.00,206.00 Z
           M 716.00,209.00
           C 716.00,209.00 715.00,209.00 715.00,209.00
             715.00,209.00 716.00,210.00 716.00,210.00
             716.00,210.00 716.00,209.00 716.00,209.00 Z
           M 717.00,212.00
           C 717.00,212.00 716.00,212.00 716.00,212.00
             716.00,212.00 717.00,213.00 717.00,213.00
             717.00,213.00 717.00,212.00 717.00,212.00 Z
           M 718.00,215.00
           C 718.00,215.00 717.00,215.00 717.00,215.00
             717.00,215.00 718.00,216.00 718.00,216.00
             718.00,216.00 718.00,215.00 718.00,215.00 Z
           M 719.00,218.00
           C 719.00,218.00 718.00,218.00 718.00,218.00
             718.00,218.00 719.00,219.00 719.00,219.00
             719.00,219.00 719.00,218.00 719.00,218.00 Z
           M 720.00,221.00
           C 720.00,221.00 719.00,221.00 719.00,221.00
             719.00,221.00 720.00,222.00 720.00,222.00
             720.00,222.00 720.00,221.00 720.00,221.00 Z
           M 721.00,224.00
           C 721.00,224.00 720.00,224.00 720.00,224.00
             720.00,224.00 721.00,225.00 721.00,225.00
             721.00,225.00 721.00,224.00 721.00,224.00 Z
           M 721.00,409.00
           C 721.00,409.00 720.00,409.00 720.00,409.00
             720.00,409.00 721.00,410.00 721.00,410.00
             721.00,410.00 721.00,409.00 721.00,409.00 Z
           M 720.00,412.00
           C 720.00,412.00 719.00,412.00 719.00,412.00
             719.00,412.00 720.00,413.00 720.00,413.00
             720.00,413.00 720.00,412.00 720.00,412.00 Z
           M 719.00,415.00
           C 719.00,415.00 718.00,415.00 718.00,415.00
             718.00,415.00 719.00,416.00 719.00,416.00
             719.00,416.00 719.00,415.00 719.00,415.00 Z
           M 718.00,418.00
           C 718.00,418.00 717.00,418.00 717.00,418.00
             717.00,418.00 718.00,419.00 718.00,419.00
             718.00,419.00 718.00,418.00 718.00,418.00 Z
           M 717.00,421.00
           C 717.00,421.00 716.00,421.00 716.00,421.00
             716.00,421.00 717.00,422.00 717.00,422.00
             717.00,422.00 717.00,421.00 717.00,421.00 Z
           M 716.00,424.00
           C 716.00,424.00 715.00,424.00 715.00,424.00
             715.00,424.00 716.00,425.00 716.00,425.00
             716.00,425.00 716.00,424.00 716.00,424.00 Z
           M 715.00,427.00
           C 715.00,427.00 714.00,427.00 714.00,427.00
             714.00,427.00 715.00,428.00 715.00,428.00
             715.00,428.00 715.00,427.00 715.00,427.00 Z
           M 713.00,432.00
           C 713.00,432.00 712.00,432.00 712.00,432.00
             712.00,432.00 713.00,433.00 713.00,433.00
             713.00,433.00 713.00,432.00 713.00,432.00 Z
           M 711.00,437.00
           C 711.00,437.00 710.00,437.00 710.00,437.00
             710.00,437.00 711.00,438.00 711.00,438.00
             711.00,438.00 711.00,437.00 711.00,437.00 Z
           M 710.00,439.00
           C 710.00,439.00 709.00,439.00 709.00,439.00
             709.00,439.00 710.00,440.00 710.00,440.00
             710.00,440.00 710.00,439.00 710.00,439.00 Z
           M 709.00,442.00
           C 709.00,442.00 708.00,442.00 708.00,442.00
             708.00,442.00 709.00,443.00 709.00,443.00
             709.00,443.00 709.00,442.00 709.00,442.00 Z
           M 708.00,444.00
           C 708.00,444.00 707.00,444.00 707.00,444.00
             707.00,444.00 708.00,445.00 708.00,445.00
             708.00,445.00 708.00,444.00 708.00,444.00 Z
           M 707.00,446.00
           C 707.00,446.00 706.00,446.00 706.00,446.00
             706.00,446.00 707.00,447.00 707.00,447.00
             707.00,447.00 707.00,446.00 707.00,446.00 Z
           M 706.00,449.00
           C 706.00,449.00 705.00,449.00 705.00,449.00
             705.00,449.00 706.00,450.00 706.00,450.00
             706.00,450.00 706.00,449.00 706.00,449.00 Z
           M 705.00,451.00
           C 705.00,451.00 704.00,451.00 704.00,451.00
             704.00,451.00 705.00,452.00 705.00,452.00
             705.00,452.00 705.00,451.00 705.00,451.00 Z
           M 704.00,453.00
           C 704.00,453.00 703.00,453.00 703.00,453.00
             703.00,453.00 704.00,454.00 704.00,454.00
             704.00,454.00 704.00,453.00 704.00,453.00 Z
           M 703.00,455.00
           C 703.00,455.00 702.00,455.00 702.00,455.00
             702.00,455.00 703.00,456.00 703.00,456.00
             703.00,456.00 703.00,455.00 703.00,455.00 Z
           M 702.00,457.00
           C 702.00,457.00 701.00,457.00 701.00,457.00
             701.00,457.00 702.00,458.00 702.00,458.00
             702.00,458.00 702.00,457.00 702.00,457.00 Z
           M 701.00,459.00
           C 701.00,459.00 700.00,459.00 700.00,459.00
             700.00,459.00 701.00,460.00 701.00,460.00
             701.00,460.00 701.00,459.00 701.00,459.00 Z
           M 700.00,461.00
           C 700.00,461.00 699.00,461.00 699.00,461.00
             699.00,461.00 700.00,462.00 700.00,462.00
             700.00,462.00 700.00,461.00 700.00,461.00 Z
           M 699.00,463.00
           C 699.00,463.00 698.00,463.00 698.00,463.00
             698.00,463.00 699.00,464.00 699.00,464.00
             699.00,464.00 699.00,463.00 699.00,463.00 Z
           M 497.00,465.00
           C 497.00,465.00 496.00,465.00 496.00,465.00
             496.00,465.00 497.00,466.00 497.00,466.00
             497.00,466.00 497.00,465.00 497.00,465.00 Z
           M 698.00,465.00
           C 698.00,465.00 697.00,465.00 697.00,465.00
             697.00,465.00 698.00,466.00 698.00,466.00
             698.00,466.00 698.00,465.00 698.00,465.00 Z
           M 498.00,467.00
           C 498.00,467.00 497.00,467.00 497.00,467.00
             497.00,467.00 498.00,468.00 498.00,468.00
             498.00,468.00 498.00,467.00 498.00,467.00 Z
           M 697.00,467.00
           C 697.00,467.00 696.00,467.00 696.00,467.00
             696.00,467.00 697.00,468.00 697.00,468.00
             697.00,468.00 697.00,467.00 697.00,467.00 Z
           M 696.00,468.00
           C 696.00,468.00 695.00,468.00 695.00,468.00
             695.00,468.00 696.00,469.00 696.00,469.00
             696.00,469.00 696.00,468.00 696.00,468.00 Z
           M 499.00,469.00
           C 499.00,469.00 498.00,469.00 498.00,469.00
             498.00,469.00 499.00,470.00 499.00,470.00
             499.00,470.00 499.00,469.00 499.00,469.00 Z
           M 695.00,470.00
           C 695.00,470.00 694.00,470.00 694.00,470.00
             694.00,470.00 695.00,471.00 695.00,471.00
             695.00,471.00 695.00,470.00 695.00,470.00 Z
           M 500.00,471.00
           C 500.00,471.00 499.00,471.00 499.00,471.00
             499.00,471.00 500.00,472.00 500.00,472.00
             500.00,472.00 500.00,471.00 500.00,471.00 Z
           M 694.00,472.00
           C 694.00,472.00 693.00,472.00 693.00,472.00
             693.00,472.00 694.00,473.00 694.00,473.00
             694.00,473.00 694.00,472.00 694.00,472.00 Z
           M 502.00,474.00
           C 502.00,474.00 501.00,474.00 501.00,474.00
             501.00,474.00 502.00,475.00 502.00,475.00
             502.00,475.00 502.00,474.00 502.00,474.00 Z
           M 693.00,474.00
           C 693.00,474.00 692.00,474.00 692.00,474.00
             692.00,474.00 693.00,475.00 693.00,475.00
             693.00,475.00 693.00,474.00 693.00,474.00 Z
           M 503.00,476.00
           C 503.00,476.00 502.00,476.00 502.00,476.00
             502.00,476.00 503.00,477.00 503.00,477.00
             503.00,477.00 503.00,476.00 503.00,476.00 Z
           M 691.00,477.00
           C 691.00,477.00 690.00,477.00 690.00,477.00
             690.00,477.00 691.00,478.00 691.00,478.00
             691.00,478.00 691.00,477.00 691.00,477.00 Z
           M 504.00,478.00
           C 504.00,478.00 503.00,478.00 503.00,478.00
             503.00,478.00 504.00,479.00 504.00,479.00
             504.00,479.00 504.00,478.00 504.00,478.00 Z
           M 690.00,479.00
           C 690.00,479.00 689.00,479.00 689.00,479.00
             689.00,479.00 690.00,480.00 690.00,480.00
             690.00,480.00 690.00,479.00 690.00,479.00 Z
           M 506.00,481.00
           C 506.00,481.00 505.00,481.00 505.00,481.00
             505.00,481.00 506.00,482.00 506.00,482.00
             506.00,482.00 506.00,481.00 506.00,481.00 Z
           M 688.00,482.00
           C 688.00,482.00 687.00,482.00 687.00,482.00
             687.00,482.00 688.00,483.00 688.00,483.00
             688.00,483.00 688.00,482.00 688.00,482.00 Z
           M 507.00,483.00
           C 507.00,483.00 506.00,483.00 506.00,483.00
             506.00,483.00 507.00,484.00 507.00,484.00
             507.00,484.00 507.00,483.00 507.00,483.00 Z
           M 508.00,484.00
           C 508.00,484.00 507.00,484.00 507.00,484.00
             507.00,484.00 508.00,485.00 508.00,485.00
             508.00,485.00 508.00,484.00 508.00,484.00 Z
           M 687.00,484.00
           C 687.00,484.00 686.00,484.00 686.00,484.00
             686.00,484.00 687.00,485.00 687.00,485.00
             687.00,485.00 687.00,484.00 687.00,484.00 Z
           M 509.00,486.00
           C 509.00,486.00 508.00,486.00 508.00,486.00
             508.00,486.00 509.00,487.00 509.00,487.00
             509.00,487.00 509.00,486.00 509.00,486.00 Z
           M 685.00,487.00
           C 685.00,487.00 684.00,487.00 684.00,487.00
             684.00,487.00 685.00,488.00 685.00,488.00
             685.00,488.00 685.00,487.00 685.00,487.00 Z
           M 511.00,489.00
           C 511.00,489.00 510.00,489.00 510.00,489.00
             510.00,489.00 511.00,490.00 511.00,490.00
             511.00,490.00 511.00,489.00 511.00,489.00 Z
           M 683.00,490.00
           C 683.00,490.00 682.00,490.00 682.00,490.00
             682.00,490.00 683.00,491.00 683.00,491.00
             683.00,491.00 683.00,490.00 683.00,490.00 Z
           M 513.00,492.00
           C 513.00,492.00 512.00,492.00 512.00,492.00
             512.00,492.00 513.00,493.00 513.00,493.00
             513.00,493.00 513.00,492.00 513.00,492.00 Z
           M 681.00,493.00
           C 681.00,493.00 680.00,493.00 680.00,493.00
             680.00,493.00 681.00,494.00 681.00,494.00
             681.00,494.00 681.00,493.00 681.00,493.00 Z
           M 515.00,495.00
           C 515.00,495.00 514.00,495.00 514.00,495.00
             514.00,495.00 515.00,496.00 515.00,496.00
             515.00,496.00 515.00,495.00 515.00,495.00 Z
           M 679.00,496.00
           C 679.00,496.00 678.00,496.00 678.00,496.00
             678.00,496.00 679.00,497.00 679.00,497.00
             679.00,497.00 679.00,496.00 679.00,496.00 Z
           M 517.00,498.00
           C 517.00,498.00 516.00,498.00 516.00,498.00
             516.00,498.00 517.00,499.00 517.00,499.00
             517.00,499.00 517.00,498.00 517.00,498.00 Z
           M 518.00,499.00
           C 518.00,499.00 517.00,499.00 517.00,499.00
             517.00,499.00 518.00,500.00 518.00,500.00
             518.00,500.00 518.00,499.00 518.00,499.00 Z
           M 677.00,499.00
           C 677.00,499.00 676.00,499.00 676.00,499.00
             676.00,499.00 677.00,500.00 677.00,500.00
             677.00,500.00 677.00,499.00 677.00,499.00 Z
           M 676.00,500.00
           C 676.00,500.00 675.00,500.00 675.00,500.00
             675.00,500.00 676.00,501.00 676.00,501.00
             676.00,501.00 676.00,500.00 676.00,500.00 Z
           M 519.00,501.00
           C 519.00,501.00 518.00,501.00 518.00,501.00
             518.00,501.00 519.00,502.00 519.00,502.00
             519.00,502.00 519.00,501.00 519.00,501.00 Z
           M 520.00,502.00
           C 520.00,502.00 519.00,502.00 519.00,502.00
             519.00,502.00 520.00,503.00 520.00,503.00
             520.00,503.00 520.00,502.00 520.00,502.00 Z
           M 675.00,502.00
           C 675.00,502.00 674.00,502.00 674.00,502.00
             674.00,502.00 675.00,503.00 675.00,503.00
             675.00,503.00 675.00,502.00 675.00,502.00 Z
           M 674.00,503.00
           C 674.00,503.00 673.00,503.00 673.00,503.00
             673.00,503.00 674.00,504.00 674.00,504.00
             674.00,504.00 674.00,503.00 674.00,503.00 Z
           M 522.00,505.00
           C 522.00,505.00 521.00,505.00 521.00,505.00
             521.00,505.00 522.00,506.00 522.00,506.00
             522.00,506.00 522.00,505.00 522.00,505.00 Z
           M 523.00,506.00
           C 523.00,506.00 522.00,506.00 522.00,506.00
             522.00,506.00 523.00,507.00 523.00,507.00
             523.00,507.00 523.00,506.00 523.00,506.00 Z
           M 672.00,506.00
           C 672.00,506.00 671.00,506.00 671.00,506.00
             671.00,506.00 672.00,507.00 672.00,507.00
             672.00,507.00 672.00,506.00 672.00,506.00 Z
           M 671.00,507.00
           C 671.00,507.00 670.00,507.00 670.00,507.00
             670.00,507.00 671.00,508.00 671.00,508.00
             671.00,508.00 671.00,507.00 671.00,507.00 Z
           M 525.00,509.00
           C 525.00,509.00 524.00,509.00 524.00,509.00
             524.00,509.00 525.00,510.00 525.00,510.00
             525.00,510.00 525.00,509.00 525.00,509.00 Z
           M 526.00,510.00
           C 526.00,510.00 525.00,510.00 525.00,510.00
             525.00,510.00 526.00,511.00 526.00,511.00
             526.00,511.00 526.00,510.00 526.00,510.00 Z
           M 669.00,510.00
           C 669.00,510.00 668.00,510.00 668.00,510.00
             668.00,510.00 669.00,511.00 669.00,511.00
             669.00,511.00 669.00,510.00 669.00,510.00 Z
           M 527.00,511.00
           C 527.00,511.00 526.00,511.00 526.00,511.00
             526.00,511.00 527.00,512.00 527.00,512.00
             527.00,512.00 527.00,511.00 527.00,511.00 Z
           M 668.00,511.00
           C 668.00,511.00 667.00,511.00 667.00,511.00
             667.00,511.00 668.00,512.00 668.00,512.00
             668.00,512.00 668.00,511.00 668.00,511.00 Z
           M 667.00,512.00
           C 667.00,512.00 666.00,512.00 666.00,512.00
             666.00,512.00 667.00,513.00 667.00,513.00
             667.00,513.00 667.00,512.00 667.00,512.00 Z
           M 528.00,513.00
           C 528.00,513.00 527.00,513.00 527.00,513.00
             527.00,513.00 528.00,514.00 528.00,514.00
             528.00,514.00 528.00,513.00 528.00,513.00 Z
           M 529.00,514.00
           C 529.00,514.00 528.00,514.00 528.00,514.00
             528.00,514.00 529.00,515.00 529.00,515.00
             529.00,515.00 529.00,514.00 529.00,514.00 Z
           M 530.00,515.00
           C 530.00,515.00 529.00,515.00 529.00,515.00
             529.00,515.00 530.00,516.00 530.00,516.00
             530.00,516.00 530.00,515.00 530.00,515.00 Z
           M 665.00,515.00
           C 665.00,515.00 664.00,515.00 664.00,515.00
             664.00,515.00 665.00,516.00 665.00,516.00
             665.00,516.00 665.00,515.00 665.00,515.00 Z
           M 531.00,516.00
           C 531.00,516.00 530.00,516.00 530.00,516.00
             530.00,516.00 531.00,517.00 531.00,517.00
             531.00,517.00 531.00,516.00 531.00,516.00 Z
           M 664.00,516.00
           C 664.00,516.00 663.00,516.00 663.00,516.00
             663.00,516.00 664.00,517.00 664.00,517.00
             664.00,517.00 664.00,516.00 664.00,516.00 Z
           M 663.00,517.00
           C 663.00,517.00 662.00,517.00 662.00,517.00
             662.00,517.00 663.00,518.00 663.00,518.00
             663.00,518.00 663.00,517.00 663.00,517.00 Z
           M 532.00,518.00
           C 532.00,518.00 531.00,518.00 531.00,518.00
             531.00,518.00 532.00,519.00 532.00,519.00
             532.00,519.00 532.00,518.00 532.00,518.00 Z
           M 533.00,519.00
           C 533.00,519.00 532.00,519.00 532.00,519.00
             532.00,519.00 533.00,520.00 533.00,520.00
             533.00,520.00 533.00,519.00 533.00,519.00 Z
           M 534.00,520.00
           C 534.00,520.00 533.00,520.00 533.00,520.00
             533.00,520.00 534.00,521.00 534.00,521.00
             534.00,521.00 534.00,520.00 534.00,520.00 Z
           M 535.00,521.00
           C 535.00,521.00 534.00,521.00 534.00,521.00
             534.00,521.00 535.00,522.00 535.00,522.00
             535.00,522.00 535.00,521.00 535.00,521.00 Z
           M 660.00,521.00
           C 660.00,521.00 659.00,521.00 659.00,521.00
             659.00,521.00 660.00,522.00 660.00,522.00
             660.00,522.00 660.00,521.00 660.00,521.00 Z
           M 536.00,522.00
           C 536.00,522.00 535.00,522.00 535.00,522.00
             535.00,522.00 536.00,523.00 536.00,523.00
             536.00,523.00 536.00,522.00 536.00,522.00 Z
           M 659.00,522.00
           C 659.00,522.00 658.00,522.00 658.00,522.00
             658.00,522.00 659.00,523.00 659.00,523.00
             659.00,523.00 659.00,522.00 659.00,522.00 Z
           M 658.00,523.00
           C 658.00,523.00 657.00,523.00 657.00,523.00
             657.00,523.00 658.00,524.00 658.00,524.00
             658.00,524.00 658.00,523.00 658.00,523.00 Z
           M 537.00,524.00
           C 537.00,524.00 536.00,524.00 536.00,524.00
             536.00,524.00 537.00,525.00 537.00,525.00
             537.00,525.00 537.00,524.00 537.00,524.00 Z
           M 538.00,525.00
           C 538.00,525.00 537.00,525.00 537.00,525.00
             537.00,525.00 538.00,526.00 538.00,526.00
             538.00,526.00 538.00,525.00 538.00,525.00 Z
           M 539.00,526.00
           C 539.00,526.00 538.00,526.00 538.00,526.00
             538.00,526.00 539.00,527.00 539.00,527.00
             539.00,527.00 539.00,526.00 539.00,526.00 Z
           M 540.00,527.00
           C 540.00,527.00 539.00,527.00 539.00,527.00
             539.00,527.00 540.00,528.00 540.00,528.00
             540.00,528.00 540.00,527.00 540.00,527.00 Z
           M 541.00,528.00
           C 541.00,528.00 540.00,528.00 540.00,528.00
             540.00,528.00 541.00,529.00 541.00,529.00
             541.00,529.00 541.00,528.00 541.00,528.00 Z
           M 654.00,528.00
           C 654.00,528.00 653.00,528.00 653.00,528.00
             653.00,528.00 654.00,529.00 654.00,529.00
             654.00,529.00 654.00,528.00 654.00,528.00 Z
           M 542.00,529.00
           C 542.00,529.00 541.00,529.00 541.00,529.00
             541.00,529.00 542.00,530.00 542.00,530.00
             542.00,530.00 542.00,529.00 542.00,529.00 Z
           M 653.00,529.00
           C 653.00,529.00 652.00,529.00 652.00,529.00
             652.00,529.00 653.00,530.00 653.00,530.00
             653.00,530.00 653.00,529.00 653.00,529.00 Z
           M 543.00,530.00
           C 543.00,530.00 542.00,530.00 542.00,530.00
             542.00,530.00 543.00,531.00 543.00,531.00
             543.00,531.00 543.00,530.00 543.00,530.00 Z
           M 652.00,530.00
           C 652.00,530.00 651.00,530.00 651.00,530.00
             651.00,530.00 652.00,531.00 652.00,531.00
             652.00,531.00 652.00,530.00 652.00,530.00 Z
           M 544.00,531.00
           C 544.00,531.00 543.00,531.00 543.00,531.00
             543.00,531.00 544.00,532.00 544.00,532.00
             544.00,532.00 544.00,531.00 544.00,531.00 Z
           M 651.00,531.00
           C 651.00,531.00 650.00,531.00 650.00,531.00
             650.00,531.00 651.00,532.00 651.00,532.00
             651.00,532.00 651.00,531.00 651.00,531.00 Z
           M 545.00,532.00
           C 545.00,532.00 544.00,532.00 544.00,532.00
             544.00,532.00 545.00,533.00 545.00,533.00
             545.00,533.00 545.00,532.00 545.00,532.00 Z
           M 650.00,532.00
           C 650.00,532.00 649.00,532.00 649.00,532.00
             649.00,532.00 650.00,533.00 650.00,533.00
             650.00,533.00 650.00,532.00 650.00,532.00 Z
           M 649.00,533.00
           C 649.00,533.00 648.00,533.00 648.00,533.00
             648.00,533.00 649.00,534.00 649.00,534.00
             649.00,534.00 649.00,533.00 649.00,533.00 Z
           M 546.00,534.00
           C 546.00,534.00 545.00,534.00 545.00,534.00
             545.00,534.00 546.00,535.00 546.00,535.00
             546.00,535.00 546.00,534.00 546.00,534.00 Z
           M 547.00,535.00
           C 547.00,535.00 546.00,535.00 546.00,535.00
             546.00,535.00 547.00,536.00 547.00,536.00
             547.00,536.00 547.00,535.00 547.00,535.00 Z
           M 548.00,536.00
           C 548.00,536.00 547.00,536.00 547.00,536.00
             547.00,536.00 548.00,537.00 548.00,537.00
             548.00,537.00 548.00,536.00 548.00,536.00 Z
           M 549.00,537.00
           C 549.00,537.00 548.00,537.00 548.00,537.00
             548.00,537.00 549.00,538.00 549.00,538.00
             549.00,538.00 549.00,537.00 549.00,537.00 Z
           M 550.00,538.00
           C 550.00,538.00 549.00,538.00 549.00,538.00
             549.00,538.00 550.00,539.00 550.00,539.00
             550.00,539.00 550.00,538.00 550.00,538.00 Z
           M 551.00,539.00
           C 551.00,539.00 550.00,539.00 550.00,539.00
             550.00,539.00 551.00,540.00 551.00,540.00
             551.00,540.00 551.00,539.00 551.00,539.00 Z
           M 552.00,540.00
           C 552.00,540.00 551.00,540.00 551.00,540.00
             551.00,540.00 552.00,541.00 552.00,541.00
             552.00,541.00 552.00,540.00 552.00,540.00 Z
           M 553.00,541.00
           C 553.00,541.00 552.00,541.00 552.00,541.00
             552.00,541.00 553.00,542.00 553.00,542.00
             553.00,542.00 553.00,541.00 553.00,541.00 Z
           M 554.00,542.00
           C 554.00,542.00 553.00,542.00 553.00,542.00
             553.00,542.00 554.00,543.00 554.00,543.00
             554.00,543.00 554.00,542.00 554.00,542.00 Z
           M 555.00,543.00
           C 555.00,543.00 554.00,543.00 554.00,543.00
             554.00,543.00 555.00,544.00 555.00,544.00
             555.00,544.00 555.00,543.00 555.00,543.00 Z
           M 556.00,544.00
           C 556.00,544.00 555.00,544.00 555.00,544.00
             555.00,544.00 556.00,545.00 556.00,545.00
             556.00,545.00 556.00,544.00 556.00,544.00 Z
           M 557.00,545.00
           C 557.00,545.00 556.00,545.00 556.00,545.00
             556.00,545.00 557.00,546.00 557.00,546.00
             557.00,546.00 557.00,545.00 557.00,545.00 Z
           M 558.00,546.00
           C 558.00,546.00 557.00,546.00 557.00,546.00
             557.00,546.00 558.00,547.00 558.00,547.00
             558.00,547.00 558.00,546.00 558.00,546.00 Z
           M 559.00,547.00
           C 559.00,547.00 558.00,547.00 558.00,547.00
             558.00,547.00 559.00,548.00 559.00,548.00
             559.00,548.00 559.00,547.00 559.00,547.00 Z
           M 634.00,548.00
           C 634.00,548.00 633.00,548.00 633.00,548.00
             633.00,548.00 634.00,549.00 634.00,549.00
             634.00,549.00 634.00,548.00 634.00,548.00 Z
           M 562.00,549.00
           C 562.00,549.00 561.00,549.00 561.00,549.00
             561.00,549.00 562.00,550.00 562.00,550.00
             562.00,550.00 562.00,549.00 562.00,549.00 Z
           M 633.00,549.00
           C 633.00,549.00 632.00,549.00 632.00,549.00
             632.00,549.00 633.00,550.00 633.00,550.00
             633.00,550.00 633.00,549.00 633.00,549.00 Z
           M 563.00,550.00
           C 563.00,550.00 562.00,550.00 562.00,550.00
             562.00,550.00 563.00,551.00 563.00,551.00
             563.00,551.00 563.00,550.00 563.00,550.00 Z
           M 632.00,550.00
           C 632.00,550.00 631.00,550.00 631.00,550.00
             631.00,550.00 632.00,551.00 632.00,551.00
             632.00,551.00 632.00,550.00 632.00,550.00 Z
           M 564.00,551.00
           C 564.00,551.00 563.00,551.00 563.00,551.00
             563.00,551.00 564.00,552.00 564.00,552.00
             564.00,552.00 564.00,551.00 564.00,551.00 Z
           M 631.00,551.00
           C 631.00,551.00 630.00,551.00 630.00,551.00
             630.00,551.00 631.00,552.00 631.00,552.00
             631.00,552.00 631.00,551.00 631.00,551.00 Z
           M 565.00,552.00
           C 565.00,552.00 564.00,552.00 564.00,552.00
             564.00,552.00 565.00,553.00 565.00,553.00
             565.00,553.00 565.00,552.00 565.00,552.00 Z
           M 630.00,552.00
           C 630.00,552.00 629.00,552.00 629.00,552.00
             629.00,552.00 630.00,553.00 630.00,553.00
             630.00,553.00 630.00,552.00 630.00,552.00 Z
           M 566.00,553.00
           C 566.00,553.00 565.00,553.00 565.00,553.00
             565.00,553.00 566.00,554.00 566.00,554.00
             566.00,554.00 566.00,553.00 566.00,553.00 Z
           M 629.00,553.00
           C 629.00,553.00 628.00,553.00 628.00,553.00
             628.00,553.00 629.00,554.00 629.00,554.00
             629.00,554.00 629.00,553.00 629.00,553.00 Z
           M 567.00,554.00
           C 567.00,554.00 566.00,554.00 566.00,554.00
             566.00,554.00 567.00,555.00 567.00,555.00
             567.00,555.00 567.00,554.00 567.00,554.00 Z
           M 568.00,555.00
           C 568.00,555.00 567.00,555.00 567.00,555.00
             567.00,555.00 568.00,556.00 568.00,556.00
             568.00,556.00 568.00,555.00 568.00,555.00 Z
           M 569.00,556.00
           C 569.00,556.00 568.00,556.00 568.00,556.00
             568.00,556.00 569.00,557.00 569.00,557.00
             569.00,557.00 569.00,556.00 569.00,556.00 Z
           M 624.00,557.00
           C 624.00,557.00 623.00,557.00 623.00,557.00
             623.00,557.00 624.00,558.00 624.00,558.00
             624.00,558.00 624.00,557.00 624.00,557.00 Z
           M 572.00,558.00
           C 572.00,558.00 571.00,558.00 571.00,558.00
             571.00,558.00 572.00,559.00 572.00,559.00
             572.00,559.00 572.00,558.00 572.00,558.00 Z
           M 623.00,558.00
           C 623.00,558.00 622.00,558.00 622.00,558.00
             622.00,558.00 623.00,559.00 623.00,559.00
             623.00,559.00 623.00,558.00 623.00,558.00 Z
           M 573.00,559.00
           C 573.00,559.00 572.00,559.00 572.00,559.00
             572.00,559.00 573.00,560.00 573.00,560.00
             573.00,560.00 573.00,559.00 573.00,559.00 Z
           M 622.00,559.00
           C 622.00,559.00 621.00,559.00 621.00,559.00
             621.00,559.00 622.00,560.00 622.00,560.00
             622.00,560.00 622.00,559.00 622.00,559.00 Z
           M 574.00,560.00
           C 574.00,560.00 573.00,560.00 573.00,560.00
             573.00,560.00 574.00,561.00 574.00,561.00
             574.00,561.00 574.00,560.00 574.00,560.00 Z
           M 575.00,561.00
           C 575.00,561.00 574.00,561.00 574.00,561.00
             574.00,561.00 575.00,562.00 575.00,562.00
             575.00,562.00 575.00,561.00 575.00,561.00 Z
           M 618.00,562.00
           C 618.00,562.00 617.00,562.00 617.00,562.00
             617.00,562.00 618.00,563.00 618.00,563.00
             618.00,563.00 618.00,562.00 618.00,562.00 Z
           M 578.00,563.00
           C 578.00,563.00 577.00,563.00 577.00,563.00
             577.00,563.00 578.00,564.00 578.00,564.00
             578.00,564.00 578.00,563.00 578.00,563.00 Z
           M 617.00,563.00
           C 617.00,563.00 616.00,563.00 616.00,563.00
             616.00,563.00 617.00,564.00 617.00,564.00
             617.00,564.00 617.00,563.00 617.00,563.00 Z
           M 579.00,564.00
           C 579.00,564.00 578.00,564.00 578.00,564.00
             578.00,564.00 579.00,565.00 579.00,565.00
             579.00,565.00 579.00,564.00 579.00,564.00 Z
           M 616.00,564.00
           C 616.00,564.00 615.00,564.00 615.00,564.00
             615.00,564.00 616.00,565.00 616.00,565.00
             616.00,565.00 616.00,564.00 616.00,564.00 Z
           M 580.00,565.00
           C 580.00,565.00 579.00,565.00 579.00,565.00
             579.00,565.00 580.00,566.00 580.00,566.00
             580.00,566.00 580.00,565.00 580.00,565.00 Z
           M 613.00,566.00
           C 613.00,566.00 612.00,566.00 612.00,566.00
             612.00,566.00 613.00,567.00 613.00,567.00
             613.00,567.00 613.00,566.00 613.00,566.00 Z
           M 583.00,567.00
           C 583.00,567.00 582.00,567.00 582.00,567.00
             582.00,567.00 583.00,568.00 583.00,568.00
             583.00,568.00 583.00,567.00 583.00,567.00 Z
           M 612.00,567.00
           C 612.00,567.00 611.00,567.00 611.00,567.00
             611.00,567.00 612.00,568.00 612.00,568.00
             612.00,568.00 612.00,567.00 612.00,567.00 Z
           M 584.00,568.00
           C 584.00,568.00 583.00,568.00 583.00,568.00
             583.00,568.00 584.00,569.00 584.00,569.00
             584.00,569.00 584.00,568.00 584.00,568.00 Z
           M 585.00,569.00
           C 585.00,569.00 584.00,569.00 584.00,569.00
             584.00,569.00 585.00,570.00 585.00,570.00
             585.00,570.00 585.00,569.00 585.00,569.00 Z
           M 587.00,570.00
           C 587.00,570.00 586.00,570.00 586.00,570.00
             586.00,570.00 587.00,571.00 587.00,571.00
             587.00,571.00 587.00,570.00 587.00,570.00 Z
           M 608.00,570.00
           C 608.00,570.00 607.00,570.00 607.00,570.00
             607.00,570.00 608.00,571.00 608.00,571.00
             608.00,571.00 608.00,570.00 608.00,570.00 Z
           M 588.00,571.00
           C 588.00,571.00 587.00,571.00 587.00,571.00
             587.00,571.00 588.00,572.00 588.00,572.00
             588.00,572.00 588.00,571.00 588.00,571.00 Z
           M 607.00,571.00
           C 607.00,571.00 606.00,571.00 606.00,571.00
             606.00,571.00 607.00,572.00 607.00,572.00
             607.00,572.00 607.00,571.00 607.00,571.00 Z
           M 589.00,572.00
           C 589.00,572.00 588.00,572.00 588.00,572.00
             588.00,572.00 589.00,573.00 589.00,573.00
             589.00,573.00 589.00,572.00 589.00,572.00 Z
           M 591.00,573.00
           C 591.00,573.00 590.00,573.00 590.00,573.00
             590.00,573.00 591.00,574.00 591.00,574.00
             591.00,574.00 591.00,573.00 591.00,573.00 Z
           M 604.00,573.00
           C 604.00,573.00 603.00,573.00 603.00,573.00
             603.00,573.00 604.00,574.00 604.00,574.00
             604.00,574.00 604.00,573.00 604.00,573.00 Z
           M 592.00,574.00
           C 592.00,574.00 591.00,574.00 591.00,574.00
             591.00,574.00 592.00,575.00 592.00,575.00
             592.00,575.00 592.00,574.00 592.00,574.00 Z
           M 601.00,575.00
           C 601.00,575.00 600.00,575.00 600.00,575.00
             600.00,575.00 601.00,576.00 601.00,576.00
             601.00,576.00 601.00,575.00 601.00,575.00 Z
           M 595.00,576.00
           C 595.00,576.00 594.00,576.00 594.00,576.00
             594.00,576.00 595.00,577.00 595.00,577.00
             595.00,577.00 595.00,576.00 595.00,576.00 Z
           M 600.00,576.00
           C 600.00,576.00 599.00,576.00 599.00,576.00
             599.00,576.00 600.00,577.00 600.00,577.00
             600.00,577.00 600.00,576.00 600.00,576.00 Z
           M 596.00,577.00
           C 596.00,577.00 595.00,577.00 595.00,577.00
             595.00,577.00 596.00,578.00 596.00,578.00
             596.00,578.00 596.00,577.00 596.00,577.00 Z
           M 598.00,577.00
           C 598.00,577.00 597.00,577.00 597.00,577.00
             597.00,577.00 598.00,578.00 598.00,578.00
             598.00,578.00 598.00,577.00 598.00,577.00 Z" />
</svg>
