<?xml version="1.0" encoding="UTF-8" standalone="no"?>
<!-- Created with Inkscape (http://www.inkscape.org/) -->

<svg
   version="1.1"
   id="svg2"
   width="1326.6667"
   height="566.47998"
   viewBox="0 0 1326.6667 566.47998"
   sodipodi:docname="Stream JWF logo White RGB.eps"
   xmlns:inkscape="http://www.inkscape.org/namespaces/inkscape"
   xmlns:sodipodi="http://sodipodi.sourceforge.net/DTD/sodipodi-0.dtd"
   xmlns="http://www.w3.org/2000/svg"
   xmlns:svg="http://www.w3.org/2000/svg">
  <defs
     id="defs6" />
  <sodipodi:namedview
     id="namedview4"
     pagecolor="#ffffff"
     bordercolor="#000000"
     borderopacity="0.25"
     inkscape:showpageshadow="2"
     inkscape:pageopacity="0.0"
     inkscape:pagecheckerboard="0"
     inkscape:deskcolor="#d1d1d1" />
  <g
     id="g8"
     inkscape:groupmode="layer"
     inkscape:label="ink_ext_XXXXXX"
     transform="matrix(1.3333333,0,0,-1.3333333,0,566.48)">
    <g
       id="g10"
       transform="scale(0.1)">
      <path
         d="m 2841.11,1165.95 h 48.65 v 322.79 c 0,61.37 18.58,109 55.55,142.87 37.09,33.89 85.98,50.75 146.59,50.75 60.04,0 104.22,-13.52 132.83,-40.8 28.56,-27.12 42.79,-65.37 42.79,-114.79 v -360.82 h 48.73 v 333.35 c 0,57.87 17.25,102.81 51.87,134.91 34.56,32.11 84.62,48.15 150.21,48.15 60.05,0 104.31,-15.32 132.86,-46.01 28.51,-30.67 42.77,-70.36 42.77,-119.09 v -351.31 h 48.75 v 367.15 c 0,62.11 -18.52,109.58 -55.58,142.34 -37,32.81 -93.61,49.25 -169.83,49.25 -100.13,0 -170.04,-41.96 -209.5,-125.94 -12.71,38.88 -35.06,69.55 -67.24,92.08 -32.1,22.56 -78.82,33.86 -140.17,33.86 -43.76,0 -84.19,-9.5 -121.19,-28.54 -37.07,-19.09 -66.11,-45.82 -87.2,-80.42 h -2.24 v 92.02 h -48.65 v -541.8"
         style="fill:#ffffff;fill-opacity:1;fill-rule:nonzero;stroke:none"
         id="path12" />
      <path
         d="m 3878.15,1468.64 c 10.61,65.59 37.57,117.6 80.97,156.07 43.4,38.43 99.32,57.66 167.77,57.66 66.23,0 121.74,-17.83 166.62,-53.48 44.73,-35.61 72.12,-89.01 81.92,-160.25 z m 552.43,-42.37 c -0.75,88.95 -27.63,160.85 -80.49,215.91 -52.88,54.98 -125.61,82.47 -217.95,82.47 -54.3,0 -101.25,-8.79 -140.78,-26.38 -39.52,-17.6 -71.11,-40.95 -94.73,-69.91 -23.54,-28.91 -40.7,-59.52 -51.25,-92.05 -10.63,-32.39 -15.9,-64.19 -15.9,-95.17 0,-89.59 27.18,-160.7 81.42,-213.21 54.37,-52.59 127.71,-78.91 220.14,-78.91 73.4,0 133.49,16.05 180.45,48.22 46.95,32.03 81.65,81.57 104.14,148.66 h -48.57 c -7.13,-18.33 -15.02,-35.29 -23.85,-50.83 -8.76,-15.53 -21.71,-31.41 -38.65,-47.67 -16.84,-16.12 -39.3,-29.56 -67.16,-40.19 -27.84,-10.56 -61.5,-15.83 -101.03,-15.83 -79.77,0 -142.35,21.68 -187.88,65.08 -45.45,43.4 -68.86,99.98 -70.34,169.81 h 552.43"
         style="fill:#ffffff;fill-opacity:1;fill-rule:nonzero;stroke:none"
         id="path14" />
      <path
         d="m 4549.02,1540.61 c 7.73,50.81 26.15,87.04 55.04,108.99 28.89,21.83 77.94,32.76 147.09,32.76 75.49,0 127.78,-10.35 157.12,-31.22 29.27,-20.79 43.93,-51.31 43.93,-91.51 0,-31.07 -5.79,-51.21 -17.47,-60.32 -11.67,-9.22 -33.34,-14.79 -65.07,-16.97 l -189.39,-12.68 c -29.7,-1.42 -56.45,-5.3 -80.44,-11.59 -24,-6.39 -45.32,-15.54 -64.04,-27.5 -18.73,-12.11 -33.28,-27.7 -43.91,-47.11 -10.55,-19.47 -15.83,-42.56 -15.83,-69.38 0,-38.11 8.64,-68.8 25.87,-92.04 17.37,-23.27 38.47,-39.97 63.52,-50.24 25.02,-10.23 48.13,-16.55 69.3,-19.08 21.09,-2.46 42.35,-3.73 63.51,-3.73 21.87,0 43.92,1.45 66.06,4.24 22.28,2.84 45.63,8.64 69.92,17.48 24.35,8.92 47.31,21.69 68.79,38.61 21.54,17.04 39.3,38.49 53.4,64.55 h 2.18 c 0,-43.72 3.47,-74.41 10.54,-92.03 7.05,-17.6 25.77,-26.51 56.09,-26.51 23.92,0 43.76,2.89 59.27,8.53 v 42.35 c -17.01,-5.66 -32.81,-8.46 -47.68,-8.46 -16.2,0 -26.24,4.74 -30.09,14.25 -3.94,9.51 -5.87,26.3 -5.87,50.3 V 1566 c 0,58.54 -20.58,99.64 -61.88,123.25 -41.31,23.63 -103.57,35.45 -186.78,35.45 -82.54,0 -142.85,-13.75 -180.91,-41.24 -38.19,-27.57 -61.72,-75.18 -70.94,-142.85 z m 403.18,-171.47 c 0,-30.32 -7.59,-56.91 -22.75,-79.85 -15.13,-22.97 -35.14,-41.61 -59.79,-56.11 -24.74,-14.48 -51.71,-25.12 -80.91,-31.72 -29.34,-6.7 -58.47,-10.12 -87.3,-10.12 -19.83,0 -39.43,1.42 -58.77,4.25 -19.37,2.9 -38.27,8.47 -56.6,16.94 -18.35,8.45 -33.14,21.19 -44.48,38.11 -11.22,16.94 -16.88,38.02 -16.88,63.44 0,38.11 13.44,65.68 40.21,82.61 26.79,16.86 65.21,27.12 115.34,30.69 l 182.98,12.63 c 43.12,2.9 72,12.41 86.8,28.59 h 2.15 v -99.46"
         style="fill:#ffffff;fill-opacity:1;fill-rule:nonzero;stroke:none"
         id="path16" />
      <path
         d="m 5600.85,1549.01 c -1.42,24 -6.32,46.06 -14.79,66.21 -8.47,20.03 -21.9,38.39 -40.2,54.96 -18.33,16.57 -43.75,29.79 -76.29,39.67 -32.39,9.89 -72.59,14.8 -120.58,14.8 -43.75,0 -80.59,-4.67 -110.53,-14.21 -30.02,-9.57 -53.5,-22.06 -70.35,-37.59 -17.04,-15.54 -28.99,-32.17 -36.04,-49.77 -7.08,-17.59 -10.55,-34.9 -10.55,-51.77 0,-22.67 4.52,-42.42 13.75,-59.31 9.13,-16.99 21.17,-30.51 35.94,-40.78 14.86,-10.24 30.92,-18.33 48.15,-24.28 17.32,-6.02 35.51,-10.11 54.53,-12.18 l 190.42,-25.41 c 33.87,-4.24 60.53,-14.28 79.93,-30.16 19.38,-15.84 29.14,-38.65 29.14,-68.22 0,-39.49 -15.53,-69.38 -46.6,-89.42 -31.05,-20.15 -81.52,-30.17 -151.33,-30.17 -49.34,0 -89.39,4.6 -120.05,13.74 -30.71,9.14 -53.52,20.8 -68.27,34.92 -14.85,14.12 -24.66,28.59 -29.63,43.37 -4.91,14.8 -8.51,32.11 -10.57,51.88 h -48.74 c 3.57,-64.95 28.73,-112.19 75.71,-141.76 46.87,-29.74 109.79,-44.5 188.82,-44.5 28.99,0 57.68,1.76 86.28,5.35 28.6,3.49 56.08,10.92 82.54,22.14 26.45,11.36 48.13,27.87 65.07,49.78 16.93,21.82 25.42,50.07 25.42,84.67 0,45.84 -14.66,80.02 -43.98,102.61 -29.21,22.58 -71.41,37.81 -126.46,45.54 l -172.43,23.25 c -34.54,4.91 -61.35,14.5 -80.38,28.54 -19.09,14.18 -28.6,35.27 -28.6,63.52 0,31.78 13.96,57.64 41.81,77.8 27.87,20.03 72.82,30.15 134.86,30.15 69.16,0 119.75,-10.78 151.93,-32.34 32.11,-21.46 49.93,-55.18 53.42,-101.03 h 48.65"
         style="fill:#ffffff;fill-opacity:1;fill-rule:nonzero;stroke:none"
         id="path18" />
      <path
         d="m 6231.54,1707.75 h -48.66 v -316.41 c 0,-25.41 -4.61,-50.07 -13.84,-74.06 -9.12,-24 -23.16,-45.46 -42.25,-64.55 -19.03,-19.04 -43,-34.03 -72,-44.95 -28.9,-10.93 -62.78,-16.43 -101.56,-16.43 -38.85,0 -71.47,4.38 -97.85,13.3 -26.51,8.77 -47.08,21.12 -61.86,37 -14.95,15.82 -25.41,34.92 -31.81,57.14 -6.31,22.19 -9.49,47.82 -9.49,76.67 v 332.29 h -48.67 v -334.39 c 0,-25.42 1.7,-49.39 5.27,-71.98 3.47,-22.52 13.08,-45.62 28.61,-69.25 15.51,-23.68 40.64,-43.38 75.55,-59.28 34.98,-15.91 81.35,-23.85 139.14,-23.85 57.94,0 105.74,11.67 143.46,34.92 37.73,23.35 66.12,53.28 85.13,89.95 h 2.17 v -107.92 h 48.66 v 541.8"
         style="fill:#ffffff;fill-opacity:1;fill-rule:nonzero;stroke:none"
         id="path20" />
      <path
         d="m 6350.09,1165.95 h 48.58 v 293.15 c 0,59.22 18.59,110.25 55.59,152.89 37.05,42.65 88.77,63.97 155.02,63.97 14.8,0 26.32,-0.52 34.4,-1.49 8.18,-1.11 15.31,-2.66 21.68,-4.83 v 48.74 c -14.77,4.16 -28.21,6.31 -40.19,6.31 -53.62,0 -99.96,-12.41 -139.13,-37.06 -39.15,-24.67 -67.53,-60.63 -85.12,-107.95 h -2.25 v 128.07 h -48.58 v -541.8"
         style="fill:#ffffff;fill-opacity:1;fill-rule:nonzero;stroke:none"
         id="path22" />
      <path
         d="m 6739.46,1468.64 c 10.64,65.59 37.6,117.6 80.97,156.07 43.39,38.43 99.25,57.66 167.75,57.66 66.27,0 121.79,-17.83 166.66,-53.48 44.71,-35.61 72.12,-89.01 81.94,-160.25 z m 552.44,-42.37 c -0.76,88.95 -27.63,160.85 -80.47,215.91 -52.89,54.98 -125.62,82.47 -217.95,82.47 -54.3,0 -101.27,-8.79 -140.81,-26.38 -39.52,-17.6 -71.11,-40.95 -94.71,-69.91 -23.56,-28.91 -40.7,-59.52 -51.27,-92.05 -10.63,-32.39 -15.88,-64.19 -15.88,-95.17 0,-89.59 27.18,-160.7 81.42,-213.21 54.35,-52.59 127.7,-78.91 220.13,-78.91 73.39,0 133.5,16.05 180.43,48.22 46.89,32.03 81.66,81.57 104.18,148.66 h -48.59 c -7.14,-18.33 -15.01,-35.29 -23.85,-50.83 -8.77,-15.53 -21.71,-31.41 -38.63,-47.67 -16.87,-16.12 -39.31,-29.56 -67.16,-40.19 -27.87,-10.56 -61.58,-15.83 -101.03,-15.83 -79.79,0 -142.35,21.68 -187.89,65.08 -45.47,43.4 -68.89,99.98 -70.36,169.81 h 552.44"
         style="fill:#ffffff;fill-opacity:1;fill-rule:nonzero;stroke:none"
         id="path24" />
      <path
         d="m 7369.07,1165.95 h 48.64 v 322.79 c 0,61.37 18.59,109 55.56,142.87 37.08,33.89 85.98,50.75 146.58,50.75 60.05,0 104.23,-13.52 132.85,-40.8 28.55,-27.12 42.78,-65.37 42.78,-114.79 v -360.82 h 48.74 v 333.35 c 0,57.87 17.24,102.81 51.86,134.91 34.55,32.11 84.62,48.15 150.21,48.15 60.05,0 104.31,-15.32 132.86,-46.01 28.51,-30.67 42.76,-70.36 42.76,-119.09 v -351.31 h 48.76 v 367.15 c 0,62.11 -18.51,109.58 -55.58,142.34 -37,32.81 -93.62,49.25 -169.83,49.25 -100.13,0 -170.05,-41.96 -209.5,-125.94 -12.78,38.88 -35.07,69.55 -67.24,92.08 -32.1,22.56 -78.8,33.86 -140.18,33.86 -43.76,0 -84.18,-9.5 -121.18,-28.54 -37.06,-19.09 -66.12,-45.82 -87.2,-80.42 h -2.25 v 92.02 h -48.64 v -541.8"
         style="fill:#ffffff;fill-opacity:1;fill-rule:nonzero;stroke:none"
         id="path26" />
      <path
         d="m 8406.09,1468.64 c 10.63,65.59 37.59,117.6 80.99,156.07 43.37,38.43 99.32,57.66 167.76,57.66 66.25,0 121.75,-17.83 166.62,-53.48 44.74,-35.61 72.12,-89.01 81.94,-160.25 z m 552.45,-42.37 c -0.75,88.95 -27.63,160.85 -80.48,215.91 -52.89,54.98 -125.62,82.47 -217.96,82.47 -54.3,0 -101.27,-8.79 -140.78,-26.38 -39.52,-17.6 -71.11,-40.95 -94.74,-69.91 -23.55,-28.91 -40.7,-59.52 -51.25,-92.05 -10.62,-32.39 -15.9,-64.19 -15.9,-95.17 0,-89.59 27.18,-160.7 81.43,-213.21 54.38,-52.59 127.72,-78.91 220.12,-78.91 73.41,0 133.5,16.05 180.46,48.22 46.88,32.03 81.63,81.57 104.15,148.66 h -48.56 c -7.16,-18.33 -15.03,-35.29 -23.87,-50.83 -8.76,-15.53 -21.69,-31.41 -38.63,-47.67 -16.88,-16.12 -39.3,-29.56 -67.17,-40.19 -27.84,-10.56 -61.5,-15.83 -101.03,-15.83 -79.77,0 -142.35,21.68 -187.88,65.08 -45.45,43.4 -68.86,99.98 -70.36,169.81 h 552.45"
         style="fill:#ffffff;fill-opacity:1;fill-rule:nonzero;stroke:none"
         id="path28" />
      <path
         d="m 9035.69,1165.95 h 48.66 v 316.41 c 0,25.41 4.67,50.14 13.82,74.06 9.14,24 23.26,45.53 42.28,64.56 19.08,19.09 43.24,34.03 72.5,44.94 29.28,10.99 62.93,16.44 101.02,16.44 38.88,0 71.49,-4.18 97.93,-12.72 26.44,-8.46 47.11,-20.79 61.9,-37.08 14.86,-16.16 25.42,-35.35 31.71,-57.57 6.38,-22.27 9.59,-47.85 9.59,-76.75 v -332.29 h 48.66 v 334.39 c 0,26.16 -1.78,50.28 -5.28,72.5 -3.56,22.21 -13.07,45.17 -28.61,68.72 -15.52,23.7 -40.7,43.38 -75.61,59.29 -34.93,15.9 -81.39,23.84 -139.17,23.84 -57.2,0 -104.76,-11.66 -142.86,-34.9 -38.1,-23.35 -66.7,-53.28 -85.65,-89.98 h -2.23 v 107.94 h -48.66 v -541.8"
         style="fill:#ffffff;fill-opacity:1;fill-rule:nonzero;stroke:none"
         id="path30" />
      <path
         d="m 9735.16,1707.75 h -122.74 v -42.27 h 122.74 v -364.1 c 0,-54.97 8.47,-93.09 25.42,-114.27 16.91,-21.16 52.59,-31.79 106.88,-31.79 34.55,0 62.05,2.22 82.54,6.4 v 42.33 c -7.78,-0.67 -15.14,-1.41 -22.22,-2.16 -20.49,-2.8 -35.65,-4.16 -45.52,-4.16 -33.9,0 -58.75,5.06 -74.61,15.3 -15.8,10.27 -23.85,30.93 -23.85,61.98 v 390.47 h 160.87 v 42.27 H 9783.8 v 183.05 h -48.64 v -183.05"
         style="fill:#ffffff;fill-opacity:1;fill-rule:nonzero;stroke:none"
         id="path32" />
      <path
         d="m 4089.05,3568.67 c -51.04,-32.33 -93.38,-73.99 -127.05,-124.51 174.1,-19.48 349.9,-44.14 527.94,-73.41 v 262.79 c -33.45,7.87 -72.73,11.73 -117.98,11.73 -108.01,0 -202.29,-25.49 -282.91,-76.6"
         style="fill:#c4cbc7;fill-opacity:1;fill-rule:nonzero;stroke:none"
         id="path34" />
      <path
         d="m 3960.18,3441.64 c 0.56,0.88 1.25,1.63 1.84,2.52 h -0.14 l -1.7,-2.52"
         style="fill:#eb2252;fill-opacity:1;fill-rule:nonzero;stroke:none"
         id="path36" />
      <path
         d="m 3419.98,3486.44 c 160.77,-6.77 322.79,-19.02 486.32,-36.33 v 165.75 h -486.32 v -129.42"
         style="fill:#c4cbc7;fill-opacity:1;fill-rule:nonzero;stroke:none"
         id="path38" />
      <path
         d="m 3012.94,4078.62 h -504.22 l 3.11,-462.77 h -77.99 c -12.86,34.77 -28.02,68.2 -45.55,100.15 -66.56,122.13 -156.01,222.73 -268.34,301.75 -112.4,78.99 -239.29,137.31 -380.75,174.77 -141.44,37.36 -288.45,56.08 -441.06,56.08 -146.93,0 -291.89,-17.31 -434.757,-52 C 720.535,4161.97 590.863,4107.89 474.395,4034.41 357.832,3960.87 264.215,3866.59 193.496,3751.44 122.758,3636.29 87.4063,3501.07 87.4063,3345.73 c 0,-130.31 24.3047,-243.38 72.7887,-339.08 48.528,-95.67 113.743,-176.13 195.551,-241.29 22.574,-17.99 45.692,-35.08 69.313,-51.19 271.078,169.61 539.73,307.21 807.621,416.64 -96.58,27.38 -173.23,53.93 -229.92,79.77 -94.346,42.96 -141.459,104.69 -141.459,185.15 0,88.69 37.445,153.18 112.332,193.38 74.877,40.28 162.317,60.4 262.167,60.4 133.13,0 246.15,-27.72 339.07,-83.21 91.31,-54.6 137.72,-143.9 139.32,-268.05 v 0.08 c 531.17,153.56 1063.16,206.46 1608.25,191.53 v 125.99 h -309.5 v 462.77"
         style="fill:#c4cbc7;fill-opacity:1;fill-rule:nonzero;stroke:none"
         id="path40" />
      <path
         d="m 9889.46,3242.98 c -12.68,73.62 -37.26,141.96 -73.61,204.81 -36.4,62.93 -90.95,113.97 -163.6,153.37 -72.74,39.3 -167,58.91 -282.95,58.91 -194.59,0 -353.71,-82.54 -477.55,-247.62 -39.25,88.47 -97.2,151.76 -173.93,190.11 -76.6,38.32 -167.02,57.51 -271.09,57.51 -92.34,0 -176.91,-22.6 -253.5,-67.83 -76.59,-45.19 -138.53,-107.06 -185.72,-185.74 h -5.89 v 209.36 h -486.3 v -918.18 c 164.42,-36.9 331.52,-73.25 501.01,-108.7 v 242.79 c 0,153.35 19.7,260.93 59,322.8 39.24,61.89 105.14,92.89 197.48,92.89 64.86,0 112.48,-25.14 142.94,-75.19 30.45,-50.16 45.69,-122.3 45.69,-216.65 v -455.77 c 164.47,-31.44 331.33,-61.76 501.03,-90.28 v 425.18 c 0,143.46 14.77,248.06 44.27,313.96 29.48,65.74 93.29,98.75 191.52,98.75 64.87,0 115.98,-23.2 153.32,-69.34 37.39,-46.21 56.04,-110.53 56.04,-193 V 2339.9 c 164.39,-23.87 331.48,-45.99 501.08,-65.97 v 725.88 c 0,88.42 -6.39,169.46 -19.24,243.17"
         style="fill:#c4cbc7;fill-opacity:1;fill-rule:nonzero;stroke:none"
         id="path42" />
      <path
         d="m 5812.63,3410.96 c -67.84,79.56 -152.32,140.99 -253.49,184.25 -101.16,43.23 -215.67,64.84 -343.38,64.84 -65.37,0 -128.73,-6.69 -190.03,-20.03 -43.84,-9.62 -86.55,-22.54 -128.31,-38.87 -100.21,-39.4 -188.18,-95.4 -263.79,-168.06 -24.6,-23.61 -47.48,-48.52 -68.58,-74.87 151.92,-25.86 305.33,-54.56 460.68,-85.89 l 14.86,-3.06 c 49.48,34.55 107.88,51.79 175.17,51.79 82.48,0 151.8,-29.93 207.81,-89.9 15.24,-16.32 28.52,-33.72 39.97,-52.13 172.13,-38.34 346.48,-78.78 523.67,-120.52 -6.08,25.65 -13.29,50.75 -21.39,75.42 -34.32,105.19 -85.44,197.52 -153.19,277.03"
         style="fill:#c4cbc7;fill-opacity:1;fill-rule:nonzero;stroke:none"
         id="path44" />
      <path
         d="m 7213.41,3562.3 c -66.79,37.34 -141.53,63.36 -224.01,77.11 -82.61,13.82 -173.91,20.64 -274.11,20.64 -94.29,0 -182.77,-8.37 -265.31,-25.02 -82.48,-16.73 -156.17,-43.75 -221.09,-81.07 -70.75,-41.3 -127.12,-95.83 -169.47,-163.58 -42.18,-67.76 -65.28,-149.85 -69.16,-246.12 h 468.57 c 23.63,127.69 107.1,191.51 250.52,191.51 60.97,0 116.45,-13.15 166.54,-39.73 50.15,-26.54 75.18,-66.29 75.18,-119.33 0,-45.24 -10.23,-77.64 -30.96,-97.32 -20.59,-19.7 -54.46,-34.41 -101.65,-44.21 -41.29,-7.87 -109.11,-18.72 -203.39,-32.38 -92.36,-11.74 -171.48,-24.23 -237.29,-37.44 339.43,-81.51 689.03,-165.81 1050.77,-247.99 v 426.89 c 0,104.59 -19.17,191.07 -57.42,259.33 -38.34,68.29 -90.95,120.88 -157.72,158.71"
         style="fill:#c4cbc7;fill-opacity:1;fill-rule:nonzero;stroke:none"
         id="path46" />
      <path
         d="m 1714.21,3298.36 0.06,-6.68 h 544.19 v -0.08 h 253.42 v -680.88 c 0,-49.92 1.79,-95.53 5.34,-136.85 -1.34,2.84 -2.67,5.65 -4.16,8.47 -47.1,95.78 -110.91,176.88 -191.36,243.46 -49.65,41.14 -102.53,77.48 -158.48,109.04 -34.69,19.55 -70.66,37.32 -107.8,53.21 -97.03,41.6 -208.02,80.46 -332.81,116.58 -72.16,19.37 -162.35,42.93 -270.51,70.63 -81.94,18.87 -155.11,37.36 -219.39,55.58 -267.89,-109.5 -536.605,-247.03 -807.608,-416.64 62.394,-42.56 128.66,-78.91 199.093,-109.06 97.012,-41.59 207.938,-80.44 332.762,-116.56 45.753,-13.37 118.933,-32.02 219.383,-55.93 l 9.5,-2.31 c 216.34,-55.42 374.42,-107.42 474.35,-155.94 99.85,-48.57 149.78,-121.38 149.78,-218.5 0,-102.67 -46.43,-178.87 -139.4,-228.8 -92.93,-50 -204.58,-74.98 -334.97,-74.98 -174.72,0 -309.93,35.44 -405.627,106.16 C 834.301,1929 782.301,2047.58 773.902,2214 H 757.461 0 c 0,-139.28 19.6836,-264.93 59.0625,-376.96 12.3359,-35.2 26.6758,-69 42.8395,-101.47 67.996,-135.97 162.356,-246.88 282.996,-332.9 120.645,-85.98 257.274,-149.09 409.868,-189.38 152.523,-40.19 317.594,-60.24 495.144,-60.24 174.68,0 338.33,17.3 490.91,51.98 152.63,34.72 289.23,90.88 409.89,168.51 120.63,77.72 216.34,180.96 287.07,310.02 70.71,128.97 106.08,283.57 106.08,463.95 0,31.51 -1.48,62.18 -4.38,91.74 12.03,-20.27 25.92,-38.49 41.53,-54.37 39.22,-40.33 93.23,-69.3 162.04,-87.01 68.78,-17.74 157.19,-26.51 265.36,-26.51 35.29,0 87.36,2.9 156.17,8.77 53.04,4.01 92.34,5.95 117.9,5.95 v 368.42 c -15.75,0 -38.32,-0.98 -67.83,-3 -27.5,-1.91 -48.13,-2.89 -61.89,-2.89 -60.84,0 -106.09,10.32 -135.59,30.91 -29.49,20.72 -44.21,59.5 -44.21,116.51 v 695.57 h 309.52 v 198.3 c -545.16,14.84 -1077.09,-38.05 -1608.27,-191.54"
         style="fill:#ffffff;fill-opacity:1;fill-rule:nonzero;stroke:none"
         id="path48" />
      <path
         d="m 6944.21,2745.47 c -4.83,-135.2 -27.56,-232.66 -68.27,-292.39 -39.16,-57.52 -102.09,-90.72 -188.65,-99.41 -15.44,-1.48 -31.7,-2.31 -48.65,-2.31 -60.91,0 -110.99,14.2 -150.37,42.74 -39.21,28.5 -58.9,72.19 -58.9,131.18 0,54.96 18.63,97.24 56.01,126.74 37.29,29.41 87.45,52.08 150.38,67.83 12.61,3.14 29.78,7.15 51.53,12.04 18.72,4.18 40.86,9 66.34,14.41 38.5,6.77 71.69,13.46 99.56,20.13 4.82,1.11 9.37,2.33 13.89,3.5 30.47,7.82 56.55,18.63 78.16,32.38 0,-19.67 -0.38,-38.46 -1.03,-56.84 M 5929.82,2548.83 h -410.53 c -18.88,-42.41 -46.81,-77.34 -83.96,-104.67 -9.21,-6.85 -19.01,-13.23 -29.48,-19.11 -52.09,-29.49 -109.58,-44.28 -172.35,-44.28 -104.25,0 -186.26,31.52 -246.22,94.45 -59.87,62.77 -91.85,147.3 -95.76,253.41 h 543.81 543.97 c -28.25,-49.65 -44.79,-109.58 -49.48,-179.8 m 1498.75,-71.7 v 157.36 82.9 c -252.8,57.45 -499.66,115.92 -741.28,173.7 -104.16,24.9 -207.25,49.7 -309.51,74.24 -11.19,-2.24 -21.97,-4.48 -32.45,-6.78 -48.59,-10.69 -95.38,-25.32 -140.32,-44.14 -21.4,-8.9 -42.42,-18.77 -63.01,-29.57 -48.75,-25.46 -90.34,-59.27 -124.8,-101.37 0.14,2.5 0.2,4.9 0.2,7.03 0,58.19 -3.7,114.27 -11.36,168.35 -4.67,34.03 -10.98,67.25 -18.88,99.63 -177.18,41.83 -351.46,82.23 -523.67,120.49 21.01,-33.95 35.45,-71.38 43.23,-112.48 3.56,-18.56 5.81,-37.81 6.69,-57.86 h -78.08 -543.81 c 10.77,64.79 31.28,120.63 61.44,167.77 13.88,21.52 29.72,41.37 47.63,59.19 12.6,12.64 25.92,23.84 40.04,33.66 -160.41,32.53 -318.79,62.33 -475.54,89 -25.72,-31.94 -48.83,-65.75 -69.48,-101.69 -1.86,-3.36 -3.79,-6.7 -5.62,-10.04 v 10.98 113.24 c -178.16,29.25 -354.02,53.93 -528.15,73.46 -19.4,-29.18 -35.97,-61.36 -49.64,-96.58 h -5.94 v 102.54 c -163.52,17.22 -325.48,29.47 -486.33,36.24 V 2086.08 h 501.19 v 757.55 c 0,102.16 33.36,188.11 100.14,257.85 66.87,69.78 159.2,104.69 277.1,104.69 47.04,0 100.45,-7.21 160.49,-21.52 l -3.57,-7.98 c -43.25,-98.28 -64.85,-205.33 -64.85,-321.29 0,-253.51 76.67,-452.46 229.93,-596.87 153.26,-144.43 355.64,-216.66 607.17,-216.66 72.6,0 141.91,6.85 207.8,20.29 100.08,20.51 192.35,56.47 277.04,107.95 98.12,59.65 172.5,139.23 223.25,238.7 16.8,-104.96 62.99,-187.95 138.54,-249.01 97.32,-78.63 222.58,-117.93 375.86,-117.93 81.49,0 160.67,10.95 237.27,32.78 13.82,4.02 27.57,8.34 41.25,12.92 89.44,30.48 164.62,78.17 225.46,142.94 7.87,-62.85 17.7,-110.99 29.5,-144.41 h 503.99 c -25.48,53.03 -41.75,109.07 -48.57,169 -6.92,59.97 -10.35,133.66 -10.35,222.05"
         style="fill:#ffffff;fill-opacity:1;fill-rule:nonzero;stroke:none"
         id="path50" />
      <path
         d="m 8461.47,2409.4 v -323.32 h 501.01 v 323.53 c -169.68,28.53 -336.51,58.85 -501.01,90.26 v -90.47"
         style="fill:#ffffff;fill-opacity:1;fill-rule:nonzero;stroke:none"
         id="path52" />
      <path
         d="m 9407.57,2339.93 v -253.85 h 501.11 v 187.89 c -169.63,19.88 -336.62,42.02 -501.11,65.96"
         style="fill:#ffffff;fill-opacity:1;fill-rule:nonzero;stroke:none"
         id="path54" />
      <path
         d="m 7515.35,2614.88 v -528.8 h 501.04 v 502.87 c -169.62,35.51 -336.68,71.86 -501.04,108.77 v -82.84"
         style="fill:#ffffff;fill-opacity:1;fill-rule:nonzero;stroke:none"
         id="path56" />
      <path
         d="m 4129.11,358.539 c 49.59,0 78.48,23.852 78.48,65.93 0,41.441 -29.51,67.191 -76.61,67.191 h -38.92 V 358.539 Z m -37.05,-214.758 h -86.03 v 418.84 h 133.75 c 99.21,0 155.09,-48.371 155.09,-133.762 0,-87.281 -57.15,-141.289 -149.45,-141.289 h -53.36 V 143.781"
         style="fill:#c4cbc7;fill-opacity:1;fill-rule:nonzero;stroke:none"
         id="path58" />
      <path
         d="m 4414.88,286.949 c 0,-50.871 33.27,-89.16 76.6,-89.16 44.58,0 80.38,41.441 80.38,91.68 0,51.492 -32.66,87.91 -79.75,87.91 -45.21,0 -77.23,-37.051 -77.23,-90.43 z m 155.73,147.582 h 79.75 v -290.75 h -79.75 v 40.199 c -27.01,-34.531 -58.4,-50.25 -101.1,-50.25 -81.62,0 -140.02,63.438 -140.02,151.969 0,91.68 61.54,158.86 146.3,158.86 39.57,0 66.56,-13.797 94.82,-47.098 v 37.07"
         style="fill:#c4cbc7;fill-opacity:1;fill-rule:nonzero;stroke:none"
         id="path60" />
      <path
         d="M 4808.66,434.531 V 391.82 c 8.16,21.348 13.8,30.129 25.74,38.942 12.55,8.777 29.52,13.797 47.1,13.797 1.87,0 5.02,0 9.41,-0.629 v -81.621 c -6.29,0.632 -12.55,1.25 -16.94,1.25 -21.98,0 -42.09,-10.051 -53.38,-26.368 -9.43,-13.203 -11.93,-25.742 -11.93,-53.382 V 143.781 h -79.75 v 290.75 h 79.75"
         style="fill:#c4cbc7;fill-opacity:1;fill-rule:nonzero;stroke:none"
         id="path62" />
      <path
         d="m 5021.57,229.18 c 0,-13.801 5.01,-17.571 22.6,-18.84 h 13.82 v -66.559 h -63.44 c -38.92,1.25 -53.36,16.969 -52.73,55.258 V 368.59 h -33.28 v 67.191 h 33.28 v 77.848 h 79.75 v -77.848 h 36.42 V 368.59 h -36.42 V 229.18"
         style="fill:#c4cbc7;fill-opacity:1;fill-rule:nonzero;stroke:none"
         id="path64" />
      <path
         d="m 5365.73,288.84 c 0,-50.238 31.39,-84.141 77.86,-84.141 45.85,0 77.86,34.531 77.86,82.871 0,52.758 -29.52,85.41 -77.23,85.41 -47.1,0 -78.49,-33.269 -78.49,-84.14 z m 236.1,-2.52 c 0,-85.39 -69.7,-152.59 -158.86,-152.59 -91.68,0 -157.61,64.688 -157.61,155.11 0,92.301 64.66,155.719 158.86,155.719 91.67,0 157.61,-66.559 157.61,-158.239"
         style="fill:#c4cbc7;fill-opacity:1;fill-rule:nonzero;stroke:none"
         id="path66" />
      <path
         d="m 5746.3,143.781 h -79.75 V 367.32 h -32.01 v 67.211 h 32.01 v 16.309 c 0,77.859 38.31,114.281 118.07,111.781 V 489.16 c -27.64,-3.14 -38.32,-13.82 -38.32,-38.32 v -16.309 h 38.32 V 367.32 H 5746.3 V 143.781"
         style="fill:#c4cbc7;fill-opacity:1;fill-rule:nonzero;stroke:none"
         id="path68" />
      <path
         d="m 6112.47,229.18 c 0,-13.801 5.02,-17.571 22.6,-18.84 h 13.82 v -66.559 h -63.43 c -38.92,1.25 -53.36,16.969 -52.74,55.258 V 368.59 h -33.28 v 67.191 h 33.28 v 77.848 h 79.75 v -77.848 h 36.42 V 368.59 h -36.42 V 229.18"
         style="fill:#c4cbc7;fill-opacity:1;fill-rule:nonzero;stroke:none"
         id="path70" />
      <path
         d="m 6286.44,403.121 c 24.47,28.891 48.35,41.438 79.73,41.438 25.12,0 52.76,-10.68 69.72,-27 18.84,-17.579 25.74,-40.18 25.74,-82.27 V 143.781 h -79.75 v 180.207 c 0,32.66 -16.96,53.391 -43.33,53.391 -13.82,0 -26.37,-5.02 -35.8,-14.438 -12.54,-11.933 -16.31,-23.23 -16.31,-45.851 V 143.781 h -79.75 v 418.84 h 79.75 v -159.5"
         style="fill:#c4cbc7;fill-opacity:1;fill-rule:nonzero;stroke:none"
         id="path72" />
      <path
         d="m 6748.63,315.84 c -6.91,38.308 -34.53,61.539 -74.09,61.539 -38.32,0 -64.06,-21.981 -71.59,-61.539 z m -145.68,-45.832 c 6.9,-40.188 36.42,-65.309 75.98,-65.309 29.51,0 54.63,14.449 67.2,37.672 l 73.47,-20.101 c -28.89,-56.508 -79.76,-88.54 -141.29,-88.54 -92.3,0 -158.23,65.309 -158.23,155.739 0,91.051 63.41,155.09 153.21,155.09 92.92,0 157.61,-65.309 157.61,-158.86 l -0.63,-15.691 h -227.32"
         style="fill:#c4cbc7;fill-opacity:1;fill-rule:nonzero;stroke:none"
         id="path74" />
      <path
         d="m 7241.04,292.609 c 1.87,-113.031 -52.11,-158.25 -184.62,-155.109 v 75.98 c 8.8,-0.621 11.95,-0.621 17.58,-0.621 24.51,0 45.23,5.641 57.78,15.692 17.59,14.437 23.23,33.898 23.23,84.769 v 178.961 h -98.59 v 70.34 h 184.62 V 292.609"
         style="fill:#c4cbc7;fill-opacity:1;fill-rule:nonzero;stroke:none"
         id="path76" />
      <path
         d="m 7725.83,562.621 h 89.79 l -116.8,-418.84 h -86.66 l -65.93,274.41 -65.94,-274.41 h -86.64 l -114.29,418.84 h 91.05 l 67.2,-264.371 67.81,264.371 h 85.41 l 65.28,-268.762 69.72,268.762"
         style="fill:#c4cbc7;fill-opacity:1;fill-rule:nonzero;stroke:none"
         id="path78" />
      <path
         d="m 7946.34,389.301 h 146.93 V 318.98 H 7946.34 V 143.781 h -86.04 v 418.84 h 232.97 v -70.34 h -146.93 v -102.98"
         style="fill:#c4cbc7;fill-opacity:1;fill-rule:nonzero;stroke:none"
         id="path80" />
      <path
         d="m 8394.76,290.719 c 0,-50.25 32.65,-86.02 78.5,-86.02 23.22,0 45.85,10.031 60.27,26.992 9.43,11.297 15.09,29.52 15.09,51.489 0,31.41 -6.91,52.761 -21.35,67.828 -14.45,13.801 -34.56,22.601 -54.63,22.601 -45.85,0 -77.88,-34.55 -77.88,-82.89 z m 155.1,143.812 h 78.49 v -269.39 c 0,-59.653 -11.3,-94.1996 -38.92,-121.1918 C 8561.17,15.6914 8518.47,0 8468.87,0 8412.34,0 8365.89,18.8281 8326.33,57.75 l 49.59,50.238 c 25.75,-27.6169 53.39,-40.1872 89.8,-40.1872 53.39,0 84.14,31.4101 84.14,86.0392 v 29.512 c -26.36,-33.282 -60.29,-49.622 -102.34,-49.622 -79.76,0 -137.53,64.688 -137.53,153.219 0,94.192 58.4,157.61 145.68,157.61 40.81,0 69.08,-13.797 94.19,-45.829 v 35.801"
         style="fill:#c4cbc7;fill-opacity:1;fill-rule:nonzero;stroke:none"
         id="path82" />
      <path
         d="M 8787.29,434.531 V 391.82 c 8.16,21.348 13.8,30.129 25.75,38.942 12.55,8.777 29.51,13.797 47.1,13.797 1.86,0 5.01,0 9.4,-0.629 v -81.621 c -6.29,0.632 -12.55,1.25 -16.94,1.25 -21.97,0 -42.08,-10.051 -53.38,-26.368 -9.43,-13.203 -11.93,-25.742 -11.93,-53.382 V 143.781 h -79.75 v 290.75 h 79.75"
         style="fill:#c4cbc7;fill-opacity:1;fill-rule:nonzero;stroke:none"
         id="path84" />
      <path
         d="m 8978.22,288.84 c 0,-50.238 31.39,-84.141 77.85,-84.141 45.85,0 77.87,34.531 77.87,82.871 0,52.758 -29.52,85.41 -77.24,85.41 -47.09,0 -78.48,-33.269 -78.48,-84.14 z m 236.09,-2.52 c 0,-85.39 -69.7,-152.59 -158.85,-152.59 -91.68,0 -157.61,64.688 -157.61,155.11 0,92.301 64.66,155.719 158.85,155.719 91.68,0 157.61,-66.559 157.61,-158.239"
         style="fill:#c4cbc7;fill-opacity:1;fill-rule:nonzero;stroke:none"
         id="path86" />
      <path
         d="m 9522.69,434.531 v -184 c 0,-42.679 -8.79,-66.551 -32.66,-86.64 -23.22,-19.481 -55.88,-30.161 -94.2,-30.161 -40.19,0 -74.71,11.301 -97.31,32.032 -20.73,18.84 -30.79,46.476 -30.79,84.769 v 184 h 79.76 V 255.57 c 0,-32.66 19.45,-54.64 48.34,-54.64 29.51,0 47.1,18.84 47.1,49.601 v 184 h 79.76"
         style="fill:#c4cbc7;fill-opacity:1;fill-rule:nonzero;stroke:none"
         id="path88" />
      <path
         d="m 9675.97,285.699 c 0,-52.758 30.76,-87.91 77.22,-87.91 46.48,0 79.76,37.051 79.76,88.531 0,53.391 -32.03,91.059 -77.26,91.059 -47.07,0 -79.72,-37.668 -79.72,-91.68 z m 0,148.832 V 398.73 c 23.84,32.032 52.11,45.829 95.44,45.829 30.76,0 56.5,-7.539 80.99,-23.848 43.96,-30.141 65.94,-74.09 65.94,-132.492 0,-92.949 -57.77,-154.489 -145.06,-154.489 -42.06,0 -72.84,13.2 -97.31,41.461 V 13.7891 h -79.76 V 434.531 h 79.76"
         style="fill:#c4cbc7;fill-opacity:1;fill-rule:nonzero;stroke:none"
         id="path90" />
    </g>
  </g>
</svg>
