<?xml version="1.0" encoding="UTF-8" standalone="no"?>
<!-- Created with Inkscape (http://www.inkscape.org/) -->

<svg
   version="1.1"
   id="svg2"
   width="1326.6667"
   height="566.47998"
   viewBox="0 0 1326.6667 566.47998"
   sodipodi:docname="Stream JWF logo Blue RGB.eps"
   xmlns:inkscape="http://www.inkscape.org/namespaces/inkscape"
   xmlns:sodipodi="http://sodipodi.sourceforge.net/DTD/sodipodi-0.dtd"
   xmlns="http://www.w3.org/2000/svg"
   xmlns:svg="http://www.w3.org/2000/svg">
  <defs
     id="defs6" />
  <sodipodi:namedview
     id="namedview4"
     pagecolor="#ffffff"
     bordercolor="#000000"
     borderopacity="0.25"
     inkscape:showpageshadow="2"
     inkscape:pageopacity="0.0"
     inkscape:pagecheckerboard="0"
     inkscape:deskcolor="#d1d1d1" />
  <g
     id="g8"
     inkscape:groupmode="layer"
     inkscape:label="ink_ext_XXXXXX"
     transform="matrix(1.3333333,0,0,-1.3333333,0,566.48)">
    <g
       id="g10"
       transform="scale(0.1)">
      <path
         d="m 2841.11,1165.95 h 48.65 v 322.79 c 0,61.37 18.58,109 55.55,142.86 37.09,33.9 85.98,50.76 146.59,50.76 60.04,0 104.23,-13.52 132.83,-40.79 28.56,-27.12 42.79,-65.38 42.79,-114.8 v -360.82 h 48.74 v 333.35 c 0,57.87 17.23,102.81 51.86,134.91 34.56,32.11 84.62,48.15 150.21,48.15 60.06,0 104.31,-15.33 132.86,-46.01 28.5,-30.67 42.77,-70.36 42.77,-119.09 v -351.31 h 48.75 v 367.15 c 0,62.11 -18.51,109.58 -55.57,142.33 -37.01,32.82 -93.63,49.26 -169.84,49.26 -100.14,0 -170.05,-41.96 -209.5,-125.94 -12.72,38.88 -35.06,69.54 -67.25,92.07 -32.09,22.57 -78.81,33.87 -140.16,33.87 -43.76,0 -84.19,-9.5 -121.19,-28.53 -37.07,-19.1 -66.11,-45.83 -87.2,-80.43 h -2.24 v 92.02 h -48.65 v -541.8"
         style="fill:#fff;fill-opacity:1;fill-rule:nonzero;stroke:none"
         id="path12" />
      <path
         d="m 3878.16,1468.65 c 10.61,65.58 37.56,117.59 80.96,156.06 43.41,38.43 99.31,57.66 167.77,57.66 66.23,0 121.75,-17.84 166.62,-53.48 44.73,-35.62 72.12,-89 81.93,-160.24 z m 552.42,-42.38 c -0.75,88.95 -27.62,160.85 -80.49,215.91 -52.88,54.98 -125.61,82.47 -217.95,82.47 -54.3,0 -101.25,-8.79 -140.78,-26.38 -39.53,-17.59 -71.11,-40.94 -94.73,-69.91 -23.54,-28.9 -40.7,-59.52 -51.25,-92.05 -10.63,-32.39 -15.9,-64.19 -15.9,-95.16 0,-89.6 27.18,-160.71 81.41,-213.22 54.39,-52.6 127.72,-78.91 220.15,-78.91 73.4,0 133.49,16.05 180.45,48.22 46.94,32.03 81.65,81.57 104.14,148.66 h -48.57 c -7.13,-18.33 -15.02,-35.29 -23.84,-50.83 -8.77,-15.53 -21.72,-31.41 -38.66,-47.67 -16.84,-16.12 -39.3,-29.57 -67.15,-40.19 -27.85,-10.57 -61.51,-15.83 -101.05,-15.83 -79.76,0 -142.33,21.68 -187.87,65.08 -45.46,43.4 -68.86,99.98 -70.33,169.81 h 552.42"
         style="fill:#fff;fill-opacity:1;fill-rule:nonzero;stroke:none"
         id="path14" />
      <path
         d="m 4549.02,1540.61 c 7.73,50.81 26.14,87.04 55.04,108.98 28.9,21.84 77.94,32.77 147.09,32.77 75.49,0 127.78,-10.35 157.12,-31.21 29.28,-20.81 43.93,-51.31 43.93,-91.52 0,-31.07 -5.79,-51.21 -17.48,-60.32 -11.66,-9.22 -33.33,-14.79 -65.06,-16.97 l -189.39,-12.68 c -29.7,-1.41 -56.45,-5.3 -80.44,-11.59 -23.99,-6.39 -45.32,-15.54 -64.04,-27.5 -18.72,-12.11 -33.28,-27.71 -43.91,-47.11 -10.55,-19.46 -15.82,-42.56 -15.82,-69.38 0,-38.11 8.62,-68.8 25.86,-92.04 17.37,-23.28 38.48,-39.97 63.52,-50.24 25.03,-10.22 48.13,-16.55 69.29,-19.08 21.11,-2.45 42.37,-3.72 63.52,-3.72 21.86,0 43.92,1.43 66.06,4.24 22.29,2.84 45.63,8.63 69.92,17.47 24.35,8.92 47.31,21.69 68.79,38.61 21.54,17.04 39.3,38.5 53.39,64.55 h 2.19 c 0,-43.72 3.47,-74.41 10.54,-92.03 7.05,-17.6 25.77,-26.51 56.09,-26.51 23.93,0 43.76,2.89 59.28,8.53 v 42.34 c -17.02,-5.65 -32.82,-8.45 -47.69,-8.45 -16.2,0 -26.24,4.74 -30.09,14.25 -3.93,9.52 -5.87,26.3 -5.87,50.3 V 1566 c 0,58.53 -20.58,99.64 -61.88,123.25 -41.32,23.63 -103.57,35.45 -186.78,35.45 -82.54,0 -142.86,-13.75 -180.9,-41.24 -38.2,-27.57 -61.73,-75.19 -70.95,-142.85 z m 403.18,-171.48 c 0,-30.31 -7.58,-56.9 -22.75,-79.84 -15.14,-22.97 -35.14,-41.61 -59.79,-56.11 -24.74,-14.49 -51.7,-25.12 -80.91,-31.72 -29.33,-6.7 -58.47,-10.12 -87.3,-10.12 -19.83,0 -39.43,1.43 -58.77,4.25 -19.37,2.9 -38.27,8.48 -56.6,16.93 -18.34,8.46 -33.14,21.19 -44.48,38.12 -11.22,16.94 -16.88,38.03 -16.88,63.44 0,38.11 13.44,65.68 40.21,82.61 26.79,16.86 65.21,27.12 115.34,30.69 l 182.98,12.62 c 43.11,2.9 72,12.42 86.8,28.6 h 2.15 v -99.47"
         style="fill:#fff;fill-opacity:1;fill-rule:nonzero;stroke:none"
         id="path16" />
      <path
         d="m 5600.86,1549.02 c -1.42,23.99 -6.33,46.05 -14.8,66.2 -8.47,20.04 -21.89,38.39 -40.19,54.96 -18.34,16.57 -43.75,29.78 -76.29,39.67 -32.41,9.89 -72.59,14.8 -120.58,14.8 -43.75,0 -80.6,-4.68 -110.54,-14.21 -30.03,-9.57 -53.49,-22.06 -70.36,-37.6 -17.03,-15.53 -28.98,-32.15 -36.03,-49.76 -7.08,-17.59 -10.55,-34.9 -10.55,-51.77 0,-22.67 4.53,-42.42 13.75,-59.31 9.13,-17 21.16,-30.51 35.95,-40.78 14.86,-10.24 30.91,-18.34 48.13,-24.28 17.33,-6.02 35.53,-10.11 54.54,-12.18 l 190.42,-25.41 c 33.88,-4.24 60.53,-14.28 79.92,-30.16 19.4,-15.85 29.15,-38.65 29.15,-68.22 0,-39.49 -15.53,-69.39 -46.6,-89.42 -31.04,-20.15 -81.52,-30.17 -151.33,-30.17 -49.34,0 -89.38,4.6 -120.05,13.74 -30.72,9.14 -53.52,20.8 -68.27,34.92 -14.86,14.11 -24.66,28.6 -29.63,43.37 -4.91,14.8 -8.5,32.1 -10.56,51.88 h -48.75 c 3.56,-64.96 28.74,-112.19 75.71,-141.76 46.87,-29.74 109.79,-44.5 188.82,-44.5 28.99,0 57.69,1.76 86.29,5.35 28.59,3.49 56.07,10.92 82.53,22.14 26.44,11.36 48.12,27.87 65.08,49.78 16.91,21.81 25.41,50.07 25.41,84.67 0,45.84 -14.65,80.02 -43.99,102.62 -29.2,22.57 -71.4,37.8 -126.44,45.53 l -172.43,23.25 c -34.55,4.91 -61.35,14.5 -80.39,28.54 -19.1,14.18 -28.61,35.27 -28.61,63.52 0,31.78 13.97,57.63 41.83,77.8 27.86,20.03 72.82,30.16 134.84,30.16 69.17,0 119.77,-10.8 151.94,-32.35 32.11,-21.45 49.93,-55.18 53.41,-101.02 h 48.67"
         style="fill:#fff;fill-opacity:1;fill-rule:nonzero;stroke:none"
         id="path18" />
      <path
         d="m 6231.54,1707.75 h -48.65 v -316.41 c 0,-25.41 -4.62,-50.07 -13.84,-74.06 -9.13,-24.01 -23.16,-45.46 -42.26,-64.55 -19.03,-19.04 -43,-34.04 -72.01,-44.95 -28.89,-10.93 -62.77,-16.43 -101.55,-16.43 -38.85,0 -71.47,4.39 -97.84,13.3 -26.53,8.77 -47.09,21.11 -61.88,36.99 -14.94,15.83 -25.4,34.94 -31.8,57.15 -6.31,22.19 -9.49,47.81 -9.49,76.67 v 332.29 h -48.67 v -334.39 c 0,-25.42 1.71,-49.39 5.26,-71.99 3.48,-22.51 13.1,-45.61 28.62,-69.24 15.52,-23.68 40.64,-43.38 75.54,-59.29 34.99,-15.89 81.35,-23.83 139.15,-23.83 57.94,0 105.74,11.66 143.45,34.91 37.75,23.34 66.13,53.28 85.14,89.95 h 2.18 v -107.92 h 48.65 v 541.8"
         style="fill:#fff;fill-opacity:1;fill-rule:nonzero;stroke:none"
         id="path20" />
      <path
         d="m 6350.08,1165.95 h 48.6 v 293.14 c 0,59.22 18.57,110.26 55.57,152.9 37.06,42.65 88.77,63.97 155.03,63.97 14.8,0 26.32,-0.53 34.4,-1.48 8.18,-1.12 15.31,-2.67 21.68,-4.84 v 48.74 c -14.78,4.16 -28.22,6.31 -40.19,6.31 -53.62,0 -99.97,-12.41 -139.13,-37.06 -39.15,-24.67 -67.54,-60.63 -85.13,-107.95 h -2.23 v 128.07 h -48.6 v -541.8"
         style="fill:#fff;fill-opacity:1;fill-rule:nonzero;stroke:none"
         id="path22" />
      <path
         d="m 6739.47,1468.65 c 10.62,65.58 37.59,117.59 80.96,156.06 43.39,38.43 99.25,57.66 167.76,57.66 66.26,0 121.78,-17.84 166.65,-53.48 44.71,-35.62 72.12,-89 81.93,-160.24 z m 552.43,-42.38 c -0.76,88.95 -27.64,160.85 -80.47,215.91 -52.89,54.98 -125.61,82.47 -217.96,82.47 -54.29,0 -101.27,-8.79 -140.8,-26.38 -39.51,-17.59 -71.1,-40.94 -94.71,-69.91 -23.56,-28.9 -40.71,-59.52 -51.26,-92.05 -10.64,-32.39 -15.89,-64.19 -15.89,-95.16 0,-89.6 27.17,-160.71 81.42,-213.22 54.36,-52.6 127.7,-78.91 220.13,-78.91 73.39,0 133.5,16.05 180.44,48.22 46.88,32.03 81.65,81.57 104.17,148.66 h -48.59 c -7.13,-18.33 -15.01,-35.29 -23.84,-50.83 -8.78,-15.53 -21.72,-31.41 -38.65,-47.67 -16.86,-16.12 -39.29,-29.57 -67.15,-40.19 -27.87,-10.57 -61.59,-15.83 -101.04,-15.83 -79.78,0 -142.34,21.68 -187.88,65.08 -45.48,43.4 -68.9,99.98 -70.35,169.81 h 552.43"
         style="fill:#fff;fill-opacity:1;fill-rule:nonzero;stroke:none"
         id="path24" />
      <path
         d="m 7369.07,1165.95 h 48.65 v 322.79 c 0,61.37 18.58,109 55.56,142.86 37.08,33.9 85.96,50.76 146.58,50.76 60.04,0 104.22,-13.52 132.84,-40.79 28.55,-27.12 42.77,-65.38 42.77,-114.8 v -360.82 h 48.75 v 333.35 c 0,57.87 17.23,102.81 51.86,134.91 34.56,32.11 84.62,48.15 150.21,48.15 60.04,0 104.31,-15.33 132.86,-46.01 28.5,-30.67 42.77,-70.36 42.77,-119.09 v -351.31 h 48.75 v 367.15 c 0,62.11 -18.51,109.58 -55.58,142.33 -37,32.82 -93.62,49.26 -169.83,49.26 -100.14,0 -170.05,-41.96 -209.5,-125.94 -12.79,38.88 -35.06,69.54 -67.25,92.07 -32.1,22.57 -78.8,33.87 -140.16,33.87 -43.76,0 -84.19,-9.5 -121.2,-28.53 -37.06,-19.1 -66.1,-45.83 -87.19,-80.43 h -2.24 v 92.02 h -48.65 v -541.8"
         style="fill:#fff;fill-opacity:1;fill-rule:nonzero;stroke:none"
         id="path26" />
      <path
         d="m 8406.09,1468.65 c 10.63,65.58 37.6,117.59 80.99,156.06 43.37,38.43 99.31,57.66 167.77,57.66 66.24,0 121.74,-17.84 166.62,-53.48 44.73,-35.62 72.12,-89 81.93,-160.24 z m 552.44,-42.38 c -0.74,88.95 -27.62,160.85 -80.48,215.91 -52.88,54.98 -125.61,82.47 -217.95,82.47 -54.3,0 -101.28,-8.79 -140.79,-26.38 -39.51,-17.59 -71.1,-40.94 -94.73,-69.91 -23.55,-28.9 -40.71,-59.52 -51.25,-92.05 -10.62,-32.39 -15.89,-64.19 -15.89,-95.16 0,-89.6 27.18,-160.71 81.41,-213.22 54.4,-52.6 127.73,-78.91 220.13,-78.91 73.42,0 133.51,16.05 180.47,48.22 46.86,32.03 81.63,81.57 104.14,148.66 h -48.56 c -7.16,-18.33 -15.02,-35.29 -23.87,-50.83 -8.75,-15.53 -21.69,-31.41 -38.63,-47.67 -16.87,-16.12 -39.3,-29.57 -67.17,-40.19 -27.84,-10.57 -61.5,-15.83 -101.04,-15.83 -79.76,0 -142.34,21.68 -187.87,65.08 -45.46,43.4 -68.87,99.98 -70.36,169.81 h 552.44"
         style="fill:#fff;fill-opacity:1;fill-rule:nonzero;stroke:none"
         id="path28" />
      <path
         d="m 9035.7,1165.95 h 48.64 v 316.41 c 0,25.42 4.69,50.14 13.83,74.06 9.14,24 23.25,45.54 42.28,64.56 19.08,19.09 43.25,34.02 72.5,44.94 29.28,11 62.93,16.44 101.02,16.44 38.88,0 71.49,-4.18 97.94,-12.72 26.43,-8.46 47.1,-20.79 61.89,-37.08 14.87,-16.16 25.42,-35.35 31.7,-57.58 6.4,-22.26 9.59,-47.84 9.59,-76.74 v -332.29 h 48.68 v 334.38 c 0,26.17 -1.79,50.29 -5.3,72.5 -3.55,22.22 -13.06,45.18 -28.6,68.74 -15.52,23.7 -40.7,43.36 -75.61,59.28 -34.94,15.9 -81.38,23.84 -139.18,23.84 -57.19,0 -104.74,-11.66 -142.85,-34.9 -38.09,-23.35 -66.7,-53.27 -85.65,-89.98 h -2.24 v 107.94 h -48.64 v -541.8"
         style="fill:#fff;fill-opacity:1;fill-rule:nonzero;stroke:none"
         id="path30" />
      <path
         d="m 9735.16,1707.75 h -122.74 v -42.27 h 122.74 v -364.11 c 0,-54.96 8.47,-93.08 25.41,-114.26 16.92,-21.16 52.61,-31.79 106.9,-31.79 34.55,0 62.05,2.21 82.53,6.4 v 42.34 c -7.79,-0.68 -15.13,-1.42 -22.21,-2.17 -20.5,-2.81 -35.65,-4.16 -45.54,-4.16 -33.88,0 -58.75,5.07 -74.61,15.3 -15.8,10.27 -23.84,30.93 -23.84,61.98 v 390.47 h 160.87 v 42.27 H 9783.8 v 183.05 h -48.64 v -183.05"
         style="fill:#fff;fill-opacity:1;fill-rule:nonzero;stroke:none"
         id="path32" />
      <path
         d="m 4089.05,3568.66 c -51.05,-32.32 -93.37,-73.97 -127.05,-124.51 174.1,-19.47 349.9,-44.12 527.94,-73.4 v 262.79 c -33.44,7.87 -72.74,11.73 -117.98,11.73 -108.02,0 -202.3,-25.5 -282.91,-76.61"
         style="fill:#4978c5;fill-opacity:1;fill-rule:nonzero;stroke:none"
         id="path34" />
      <path
         d="m 3960.18,3441.63 c 0.56,0.88 1.25,1.64 1.84,2.52 h -0.15 l -1.69,-2.52"
         style="fill:#eb2252;fill-opacity:1;fill-rule:nonzero;stroke:none"
         id="path36" />
      <path
         d="m 3419.98,3486.44 c 160.77,-6.77 322.79,-19.03 486.32,-36.33 v 165.75 h -486.32 v -129.42"
         style="fill:#4978c5;fill-opacity:1;fill-rule:nonzero;stroke:none"
         id="path38" />
      <path
         d="m 3012.95,4078.62 h -504.23 l 3.11,-462.77 h -77.99 c -12.87,34.77 -28.02,68.2 -45.55,100.14 -66.56,122.14 -156.02,222.74 -268.34,301.77 -112.4,78.99 -239.29,137.29 -380.74,174.76 -141.45,37.36 -288.46,56.08 -441.07,56.08 -146.93,0 -291.89,-17.31 -434.753,-52 C 720.543,4161.97 590.867,4107.88 474.391,4034.4 357.828,3960.87 264.215,3866.59 193.504,3751.43 122.762,3636.29 87.4102,3501.07 87.4102,3345.73 c 0,-130.31 24.2928,-243.38 72.7888,-339.08 48.52,-95.67 113.735,-176.13 195.547,-241.29 22.57,-17.99 45.688,-35.07 69.309,-51.19 271.086,169.61 539.738,307.21 807.625,416.64 -96.58,27.39 -173.23,53.93 -229.92,79.77 -94.346,42.95 -141.463,104.69 -141.463,185.15 0,88.69 37.449,153.17 112.332,193.38 74.871,40.28 162.311,60.39 262.181,60.39 133.11,0 246.14,-27.71 339.06,-83.2 91.31,-54.6 137.72,-143.91 139.32,-268.05 v 0.08 c 531.17,153.56 1063.16,206.46 1608.26,191.53 v 125.99 h -309.5 v 462.77"
         style="fill:#4978c5;fill-opacity:1;fill-rule:nonzero;stroke:none"
         id="path40" />
      <path
         d="m 9889.47,3242.99 c -12.7,73.61 -37.28,141.95 -73.61,204.8 -36.41,62.93 -90.96,113.97 -163.62,153.37 -72.73,39.3 -166.99,58.91 -282.95,58.91 -194.59,0 -353.7,-82.54 -477.55,-247.62 -39.23,88.46 -97.19,151.76 -173.92,190.11 -76.6,38.33 -167.02,57.51 -271.1,57.51 -92.33,0 -176.89,-22.6 -253.48,-67.83 -76.59,-45.19 -138.55,-107.06 -185.73,-185.75 h -5.89 v 209.37 h -486.3 v -918.18 c 164.41,-36.91 331.51,-73.25 501.01,-108.7 v 242.79 c 0,153.35 19.69,260.93 59.01,322.8 39.23,61.88 105.13,92.88 197.48,92.88 64.84,0 112.47,-25.13 142.93,-75.18 30.46,-50.16 45.69,-122.3 45.69,-216.65 v -455.77 c 164.46,-31.43 331.33,-61.76 501.04,-90.28 v 425.17 c 0,143.48 14.76,248.07 44.25,313.96 29.49,65.75 93.31,98.75 191.53,98.75 64.87,0 115.97,-23.19 153.33,-69.34 37.39,-46.2 56.02,-110.52 56.02,-192.99 V 2339.9 c 164.41,-23.88 331.5,-45.99 501.1,-65.98 v 725.9 c 0,88.41 -6.4,169.45 -19.24,243.17"
         style="fill:#4978c5;fill-opacity:1;fill-rule:nonzero;stroke:none"
         id="path42" />
      <path
         d="m 5812.63,3410.95 c -67.84,79.58 -152.31,141 -253.48,184.26 -101.18,43.24 -215.69,64.85 -343.38,64.85 -65.37,0 -128.74,-6.69 -190.03,-20.04 -43.84,-9.62 -86.55,-22.54 -128.32,-38.87 -100.21,-39.4 -188.18,-95.4 -263.79,-168.06 -24.6,-23.61 -47.48,-48.52 -68.58,-74.88 151.92,-25.85 305.33,-54.55 460.69,-85.87 l 14.85,-3.07 c 49.48,34.55 107.87,51.79 175.18,51.79 82.48,0 151.78,-29.93 207.8,-89.89 15.23,-16.33 28.52,-33.73 39.97,-52.14 172.13,-38.34 346.48,-78.78 523.67,-120.52 -6.07,25.65 -13.29,50.75 -21.38,75.42 -34.32,105.18 -85.45,197.52 -153.2,277.02"
         style="fill:#4978c5;fill-opacity:1;fill-rule:nonzero;stroke:none"
         id="path44" />
      <path
         d="m 7213.41,3562.3 c -66.78,37.35 -141.54,63.35 -224.01,77.1 -82.61,13.83 -173.92,20.66 -274.11,20.66 -94.29,0 -182.77,-8.38 -265.3,-25.03 -82.48,-16.73 -156.18,-43.75 -221.11,-81.07 -70.73,-41.3 -127.12,-95.83 -169.46,-163.58 -42.19,-67.76 -65.28,-149.85 -69.15,-246.12 h 468.55 c 23.64,127.69 107.11,191.51 250.52,191.51 60.99,0 116.47,-13.15 166.55,-39.74 50.16,-26.53 75.18,-66.28 75.18,-119.32 0,-45.25 -10.23,-77.64 -30.97,-97.32 -20.58,-19.7 -54.45,-34.41 -101.65,-44.21 -41.28,-7.86 -109.11,-18.73 -203.39,-32.37 -92.34,-11.75 -171.47,-24.24 -237.27,-37.46 339.41,-81.5 689.02,-165.8 1050.77,-247.98 v 426.89 c 0,104.59 -19.17,191.08 -57.42,259.34 -38.34,68.28 -90.96,120.87 -157.73,158.7"
         style="fill:#4978c5;fill-opacity:1;fill-rule:nonzero;stroke:none"
         id="path46" />
      <path
         d="m 1714.21,3298.37 0.05,-6.69 h 544.2 v -0.09 h 253.43 v -680.86 c 0,-49.93 1.78,-95.54 5.32,-136.86 -1.33,2.84 -2.66,5.65 -4.16,8.47 -47.09,95.78 -110.9,176.89 -191.34,243.46 -49.65,41.14 -102.54,77.47 -158.49,109.05 -34.69,19.54 -70.66,37.31 -107.8,53.2 -97.03,41.6 -208.02,80.46 -332.82,116.58 -72.14,19.38 -162.34,42.93 -270.49,70.63 -81.95,18.87 -155.11,37.36 -219.4,55.58 -267.89,-109.5 -536.608,-247.03 -807.605,-416.64 62.391,-42.56 128.661,-78.91 199.09,-109.06 97.012,-41.59 207.942,-80.44 332.766,-116.56 45.739,-13.37 118.929,-32.02 219.379,-55.93 l 9.51,-2.31 c 216.32,-55.42 374.41,-107.43 474.34,-155.94 99.86,-48.57 149.78,-121.38 149.78,-218.5 0,-102.67 -46.42,-178.88 -139.4,-228.8 -92.93,-50.01 -204.58,-74.98 -334.97,-74.98 -174.71,0 -309.93,35.44 -405.631,106.16 -95.664,70.73 -147.668,189.3 -156.067,355.73 H 757.469 -0.00390625 c 0,-139.29 19.68750625,-264.94 59.06250625,-376.98 12.3359,-35.19 26.6797,-68.99 42.8514,-101.46 67.988,-135.97 162.344,-246.88 282.988,-332.9 120.645,-85.99 257.278,-149.09 409.864,-189.39 152.531,-40.18 317.598,-60.23 495.148,-60.23 174.69,0 338.33,17.3 490.91,51.98 152.62,34.72 289.23,90.88 409.89,168.51 120.63,77.71 216.34,180.96 287.07,310.03 70.7,128.96 106.08,283.56 106.08,463.94 0,31.51 -1.48,62.18 -4.38,91.75 12.03,-20.28 25.92,-38.51 41.53,-54.38 39.22,-40.33 93.22,-69.3 162.03,-87.02 68.79,-17.73 157.2,-26.5 265.36,-26.5 35.31,0 87.37,2.9 156.18,8.77 53.03,4.01 92.34,5.95 117.9,5.95 v 368.42 c -15.75,0 -38.32,-0.99 -67.83,-3 -27.5,-1.91 -48.13,-2.89 -61.89,-2.89 -60.84,0 -106.09,10.31 -135.59,30.91 -29.5,20.72 -44.2,59.5 -44.2,116.51 v 695.56 h 309.51 v 198.31 c -545.16,14.84 -1077.09,-38.05 -1608.27,-191.53"
         style="fill:#203f6f;fill-opacity:1;fill-rule:nonzero;stroke:none"
         id="path48" />
      <path
         d="m 6944.21,2745.47 c -4.84,-135.2 -27.56,-232.66 -68.28,-292.39 -39.16,-57.52 -102.09,-90.72 -188.64,-99.41 -15.45,-1.48 -31.71,-2.3 -48.65,-2.3 -60.91,0 -111,14.19 -150.37,42.73 -39.21,28.5 -58.91,72.2 -58.91,131.18 0,54.97 18.63,97.24 56.02,126.74 37.28,29.41 87.46,52.08 150.39,67.83 12.6,3.14 29.77,7.15 51.52,12.04 18.72,4.18 40.87,9 66.34,14.41 38.5,6.77 71.7,13.46 99.56,20.13 4.82,1.11 9.37,2.33 13.89,3.5 30.47,7.82 56.55,18.63 78.16,32.39 0,-19.68 -0.38,-38.47 -1.03,-56.85 M 5929.82,2548.83 h -410.54 c -18.87,-42.41 -46.79,-77.34 -83.94,-104.67 -9.22,-6.85 -19.02,-13.22 -29.49,-19.1 -52.09,-29.5 -109.57,-44.29 -172.36,-44.29 -104.25,0 -186.26,31.52 -246.22,94.45 -59.86,62.77 -91.83,147.3 -95.75,253.42 h 543.82 543.95 c -28.23,-49.65 -44.78,-109.58 -49.47,-179.81 m 1498.76,-71.69 v 157.35 82.91 c -252.8,57.44 -499.68,115.91 -741.29,173.7 -104.15,24.89 -207.25,49.69 -309.5,74.24 -11.2,-2.25 -21.98,-4.49 -32.45,-6.8 -48.61,-10.68 -95.39,-25.31 -140.33,-44.12 -21.4,-8.9 -42.43,-18.79 -63.01,-29.58 -48.74,-25.46 -90.34,-59.27 -124.8,-101.37 0.14,2.49 0.2,4.91 0.2,7.04 0,58.17 -3.7,114.26 -11.35,168.35 -4.69,34.02 -10.99,67.24 -18.9,99.61 -177.16,41.84 -351.45,82.24 -523.67,120.5 21.03,-33.94 35.45,-71.38 43.24,-112.48 3.57,-18.56 5.81,-37.81 6.69,-57.86 h -78.07 -543.82 c 10.76,64.79 31.28,120.63 61.44,167.76 13.88,21.53 29.72,41.38 47.63,59.2 12.6,12.64 25.93,23.84 40.04,33.66 -160.41,32.53 -318.8,62.32 -475.54,89 -25.73,-31.94 -48.83,-65.75 -69.49,-101.7 -1.84,-3.35 -3.79,-6.68 -5.61,-10.03 v 10.97 113.25 c -178.16,29.25 -354.03,53.93 -528.15,73.46 -19.4,-29.17 -35.96,-61.36 -49.64,-96.57 h -5.94 v 102.53 c -163.52,17.23 -325.48,29.47 -486.32,36.24 V 2086.08 h 501.19 v 757.55 c 0,102.15 33.35,188.12 100.13,257.85 66.86,69.77 159.21,104.69 277.11,104.69 47.03,0 100.43,-7.21 160.48,-21.52 l -3.57,-7.99 c -43.24,-98.27 -64.84,-205.31 -64.84,-321.29 0,-253.5 76.67,-452.45 229.92,-596.86 153.26,-144.42 355.64,-216.66 607.17,-216.66 72.6,0 141.91,6.85 207.81,20.29 100.08,20.51 192.33,56.47 277.03,107.95 98.11,59.65 172.5,139.23 223.24,238.71 16.81,-104.96 63,-187.96 138.56,-249.03 97.32,-78.61 222.56,-117.92 375.85,-117.92 81.5,0 160.68,10.96 237.27,32.78 13.83,4.03 27.58,8.34 41.25,12.92 89.43,30.48 164.62,78.17 225.47,142.94 7.86,-62.86 17.69,-110.99 29.48,-144.41 h 504.01 c -25.49,53.03 -41.76,109.07 -48.59,169 -6.91,59.97 -10.33,133.65 -10.33,222.06"
         style="fill:#203f6f;fill-opacity:1;fill-rule:nonzero;stroke:none"
         id="path50" />
      <path
         d="m 8461.47,2409.4 v -323.32 h 501.02 v 323.53 c -169.68,28.53 -336.53,58.85 -501.02,90.27 v -90.48"
         style="fill:#203f6f;fill-opacity:1;fill-rule:nonzero;stroke:none"
         id="path52" />
      <path
         d="m 9407.56,2339.93 v -253.85 h 501.12 v 187.89 c -169.63,19.89 -336.62,42.02 -501.12,65.96"
         style="fill:#203f6f;fill-opacity:1;fill-rule:nonzero;stroke:none"
         id="path54" />
      <path
         d="m 7515.35,2614.89 v -528.81 h 501.03 v 502.86 c -169.62,35.53 -336.67,71.87 -501.03,108.78 v -82.83"
         style="fill:#203f6f;fill-opacity:1;fill-rule:nonzero;stroke:none"
         id="path56" />
      <path
         d="m 4129.11,358.539 c 49.59,0 78.47,23.859 78.47,65.941 0,41.43 -29.51,67.168 -76.6,67.168 h -38.92 V 358.539 Z m -37.05,-214.758 h -86.04 v 418.84 h 133.76 c 99.21,0 155.09,-48.371 155.09,-133.762 0,-87.281 -57.15,-141.289 -149.44,-141.289 h -53.37 V 143.781"
         style="fill:#fff;fill-opacity:1;fill-rule:nonzero;stroke:none"
         id="path58" />
      <path
         d="m 4414.88,286.949 c 0,-50.859 33.27,-89.148 76.6,-89.148 44.58,0 80.38,41.429 80.38,91.668 0,51.492 -32.65,87.91 -79.75,87.91 -45.2,0 -77.23,-37.051 -77.23,-90.43 z m 155.73,147.571 h 79.75 V 143.781 h -79.75 v 40.199 c -27.01,-34.531 -58.4,-50.25 -101.1,-50.25 -81.62,0 -140.02,63.438 -140.02,151.969 0,91.68 61.54,158.852 146.31,158.852 39.56,0 66.55,-13.801 94.81,-47.09 v 37.059"
         style="fill:#fff;fill-opacity:1;fill-rule:nonzero;stroke:none"
         id="path60" />
      <path
         d="m 4808.66,434.52 v -42.7 c 8.16,21.36 13.8,30.141 25.74,38.93 12.55,8.789 29.51,13.801 47.1,13.801 1.88,0 5.02,0 9.4,-0.621 v -81.621 c -6.27,0.621 -12.54,1.25 -16.93,1.25 -21.98,0 -42.08,-10.051 -53.39,-26.368 -9.42,-13.191 -11.92,-25.742 -11.92,-53.39 v -140.02 h -79.75 V 434.52 h 79.75"
         style="fill:#fff;fill-opacity:1;fill-rule:nonzero;stroke:none"
         id="path62" />
      <path
         d="m 5021.57,229.168 c 0,-13.797 5.01,-17.559 22.6,-18.828 h 13.81 v -66.559 h -63.42 c -38.92,1.25 -53.36,16.969 -52.75,55.258 v 169.563 h -33.27 v 67.168 h 33.27 v 77.871 h 79.76 V 435.77 h 36.41 v -67.168 h -36.41 V 229.168"
         style="fill:#fff;fill-opacity:1;fill-rule:nonzero;stroke:none"
         id="path64" />
      <path
         d="m 5365.74,288.84 c 0,-50.231 31.38,-84.141 77.85,-84.141 45.85,0 77.86,34.531 77.86,82.871 0,52.758 -29.51,85.41 -77.23,85.41 -47.1,0 -78.48,-33.269 -78.48,-84.14 z m 236.08,-2.52 c 0,-85.39 -69.69,-152.59 -158.85,-152.59 -91.67,0 -157.61,64.688 -157.61,155.11 0,92.308 64.67,155.711 158.86,155.711 91.67,0 157.6,-66.551 157.6,-158.231"
         style="fill:#fff;fill-opacity:1;fill-rule:nonzero;stroke:none"
         id="path66" />
      <path
         d="m 5746.3,143.781 h -79.75 v 223.547 h -32 v 67.192 h 32 v 16.32 c 0,77.851 38.32,114.281 118.07,111.781 v -73.473 c -27.64,-3.128 -38.32,-13.82 -38.32,-38.308 v -16.32 h 38.32 V 367.328 H 5746.3 V 143.781"
         style="fill:#fff;fill-opacity:1;fill-rule:nonzero;stroke:none"
         id="path68" />
      <path
         d="m 6112.47,229.168 c 0,-13.797 5.02,-17.559 22.6,-18.828 h 13.82 v -66.559 h -63.43 c -38.92,1.25 -53.36,16.969 -52.74,55.258 v 169.563 h -33.28 v 67.168 h 33.28 v 77.871 h 79.75 V 435.77 h 36.42 v -67.168 h -36.42 V 229.168"
         style="fill:#fff;fill-opacity:1;fill-rule:nonzero;stroke:none"
         id="path70" />
      <path
         d="m 6286.44,403.121 c 24.47,28.879 48.34,41.43 79.73,41.43 25.12,0 52.75,-10.672 69.72,-26.992 18.83,-17.59 25.74,-40.18 25.74,-82.258 v -191.52 h -79.75 V 324 c 0,32.641 -16.96,53.379 -43.33,53.379 -13.82,0 -26.37,-5.008 -35.8,-14.449 -12.55,-11.922 -16.31,-23.219 -16.31,-45.852 V 143.781 h -79.75 v 418.84 h 79.75 v -159.5"
         style="fill:#fff;fill-opacity:1;fill-rule:nonzero;stroke:none"
         id="path72" />
      <path
         d="m 6748.63,315.828 c -6.91,38.32 -34.53,61.551 -74.09,61.551 -38.31,0 -64.07,-21.981 -71.59,-61.551 z m -145.68,-45.82 c 6.91,-40.188 36.41,-65.309 75.98,-65.309 29.51,0 54.63,14.442 67.2,37.672 l 73.47,-20.101 c -28.89,-56.508 -79.75,-88.54 -141.29,-88.54 -92.31,0 -158.24,65.309 -158.24,155.739 0,91.051 63.41,155.082 153.22,155.082 92.93,0 157.6,-65.301 157.6,-158.852 l -0.62,-15.691 h -227.32"
         style="fill:#fff;fill-opacity:1;fill-rule:nonzero;stroke:none"
         id="path74" />
      <path
         d="m 7241.04,292.609 c 1.88,-113.031 -52.11,-158.25 -184.62,-155.109 v 75.98 c 8.8,-0.621 11.95,-0.621 17.59,-0.621 24.49,0 45.22,5.641 57.77,15.692 17.59,14.437 23.23,33.898 23.23,84.758 v 178.972 h -98.59 v 70.34 h 184.62 V 292.609"
         style="fill:#fff;fill-opacity:1;fill-rule:nonzero;stroke:none"
         id="path76" />
      <path
         d="m 7725.84,562.621 h 89.77 l -116.8,-418.84 h -86.66 l -65.92,274.41 -65.93,-274.41 h -86.64 l -114.3,418.84 h 91.05 l 67.2,-264.371 67.81,264.371 h 85.41 l 65.28,-268.762 69.73,268.762"
         style="fill:#fff;fill-opacity:1;fill-rule:nonzero;stroke:none"
         id="path78" />
      <path
         d="m 7946.34,389.301 h 146.93 V 318.98 H 7946.34 V 143.781 h -86.03 v 418.84 h 232.96 v -70.34 h -146.93 v -102.98"
         style="fill:#fff;fill-opacity:1;fill-rule:nonzero;stroke:none"
         id="path80" />
      <path
         d="m 8394.75,290.719 c 0,-50.25 32.66,-86.02 78.51,-86.02 23.22,0 45.85,10.031 60.27,26.992 9.43,11.297 15.09,29.508 15.09,51.5 0,31.399 -6.91,52.75 -21.36,67.817 -14.44,13.801 -34.54,22.601 -54.63,22.601 -45.85,0 -77.88,-34.539 -77.88,-82.89 z m 155.12,143.801 h 78.48 V 165.141 c 0,-59.653 -11.3,-94.1996 -38.92,-121.1918 -28.26,-28.2578 -70.97,-43.9609188 -120.56,-43.9609188 -56.53,0 -102.98,18.8398188 -142.55,57.7617188 l 49.6,50.238 c 25.75,-27.6169 53.38,-40.1794 89.81,-40.1794 53.38,0 84.14,31.3906 84.14,86.0314 v 29.512 c -26.37,-33.282 -60.29,-49.622 -102.35,-49.622 -79.76,0 -137.53,64.688 -137.53,153.219 0,94.199 58.4,157.602 145.68,157.602 40.81,0 69.08,-13.801 94.2,-45.821 v 35.79"
         style="fill:#fff;fill-opacity:1;fill-rule:nonzero;stroke:none"
         id="path82" />
      <path
         d="m 8787.29,434.52 v -42.7 c 8.17,21.36 13.8,30.141 25.74,38.93 12.55,8.789 29.52,13.801 47.1,13.801 1.88,0 5.02,0 9.41,-0.621 v -81.621 c -6.28,0.621 -12.55,1.25 -16.94,1.25 -21.98,0 -42.09,-10.051 -53.38,-26.368 -9.43,-13.191 -11.93,-25.742 -11.93,-53.39 v -140.02 h -79.74 V 434.52 h 79.74"
         style="fill:#fff;fill-opacity:1;fill-rule:nonzero;stroke:none"
         id="path84" />
      <path
         d="m 8978.22,288.84 c 0,-50.231 31.39,-84.141 77.86,-84.141 45.85,0 77.85,34.531 77.85,82.871 0,52.758 -29.51,85.41 -77.22,85.41 -47.1,0 -78.49,-33.269 -78.49,-84.14 z m 236.09,-2.52 c 0,-85.39 -69.69,-152.59 -158.85,-152.59 -91.68,0 -157.61,64.688 -157.61,155.11 0,92.308 64.66,155.711 158.86,155.711 91.67,0 157.6,-66.551 157.6,-158.231"
         style="fill:#fff;fill-opacity:1;fill-rule:nonzero;stroke:none"
         id="path86" />
      <path
         d="M 9522.68,434.52 V 250.531 c 0,-42.691 -8.78,-66.551 -32.65,-86.64 -23.23,-19.481 -55.88,-30.161 -94.19,-30.161 -40.19,0 -74.72,11.301 -97.32,32.032 -20.73,18.828 -30.78,46.476 -30.78,84.769 V 434.52 h 79.75 V 255.57 c 0,-32.66 19.46,-54.64 48.35,-54.64 29.51,0 47.1,18.84 47.1,49.601 V 434.52 h 79.74"
         style="fill:#fff;fill-opacity:1;fill-rule:nonzero;stroke:none"
         id="path88" />
      <path
         d="m 9675.96,285.699 c 0,-52.758 30.76,-87.898 77.24,-87.898 46.47,0 79.75,37.039 79.75,88.519 0,53.391 -32.04,91.059 -77.26,91.059 -47.07,0 -79.73,-37.668 -79.73,-91.68 z m 0,148.821 v -35.79 c 23.85,32.02 52.12,45.821 95.45,45.821 30.75,0 56.5,-7.531 81,-23.84 43.95,-30.141 65.93,-74.102 65.93,-132.492 0,-92.938 -57.78,-154.489 -145.06,-154.489 -42.06,0 -72.84,13.2 -97.32,41.461 V 13.7891 h -79.74 V 434.52 h 79.74"
         style="fill:#fff;fill-opacity:1;fill-rule:nonzero;stroke:none"
         id="path90" />
    </g>
  </g>
</svg>
